<?xml version="1.0" encoding="UTF-8"?>
<svg id="Layer_1" data-name="Layer 1" xmlns="http://www.w3.org/2000/svg" version="1.1" viewBox="0 0 100 100">
  <defs>
    <style>
      .cls-1 {
        fill: #7cc248;
        stroke-width: 0px;
      }
    </style>
  </defs>
  <path class="cls-1" d="M58.61,52.8h16.65c6.84.31,11.48,3.08,11.89,10.39.23,4.21-.73,8.08-4.56,10.32l-.02.12,5.32,15.25h-12.87l-3.53-12.35-.94-.05v12.4h-11.93v-36.08ZM70.36,69.3h2.19c.4,0,1.06-.63,1.24-1,.57-1.14.61-4.46-.35-5.39-.13-.12-.75-.51-.89-.51h-2.19v6.9Z"/>
  <polygon class="cls-1" points="16.19 81.19 26.82 52.85 39.4 52.85 25.93 88.83 4.35 88.83 4.35 52.85 16.05 52.85 16.19 52.99 16.19 81.19"/>
  <polygon class="cls-1" points="62.06 14.06 62.06 49.95 50.22 49.95 50.22 21.61 39.45 50.04 27 50.04 40.34 14.06 62.06 14.06"/>
  <polygon class="cls-1" points="35.21 14.15 35.21 19.88 23.97 49.95 10.69 49.95 21.22 24.03 8.54 24.03 8.54 14.15 35.21 14.15"/>
  <polygon class="cls-1" points="55.12 52.85 55.12 88.83 43.1 88.83 43.1 62.63 41.88 62.64 42.18 54.59 45.38 52.85 55.12 52.85"/>
  <polygon class="cls-1" points="73.25 35.97 81.17 50.23 73.39 50.23 73.25 50.09 73.25 35.97"/>
  <polygon class="cls-1" points="81.83 14.24 81.83 28.41 73.99 14.24 81.83 14.24"/>
  <rect class="cls-1" x="4.35" y="8.84" width="2.17" height="44.01"/>
  <rect class="cls-1" x="93.13" y="8.84" width="2.17" height="80"/>
  <rect class="cls-1" x="48.74" y="44.49" width="2.17" height="90.95" transform="translate(-40.14 139.79) rotate(-90)"/>
  <rect class="cls-1" x="48.18" y="-33.91" width="2.17" height="87.66" transform="translate(59.19 -39.34) rotate(90)"/>
</svg>