<svg xmlns="http://www.w3.org/2000/svg" xmlns:xlink="http://www.w3.org/1999/xlink" viewBox="0 0 1200 1151.43"><defs><style>.cls-1{fill:url(#linear-gradient);}.cls-2{fill:url(#radial-gradient);}.cls-3{fill:url(#linear-gradient-2);}.cls-4{fill:url(#radial-gradient-2);}.cls-5{fill:url(#linear-gradient-3);}.cls-6{fill:url(#radial-gradient-3);}</style><linearGradient id="linear-gradient" x1="242.93" y1="401.53" x2="683.06" y2="401.53" gradientTransform="matrix(1, 0, 0, -1, 0, 609.43)" gradientUnits="userSpaceOnUse"><stop offset="0" stop-color="#147bc1"/><stop offset="0.23" stop-color="#1475b7"/><stop offset="0.62" stop-color="#13659e"/><stop offset="1" stop-color="#12527e"/></linearGradient><radialGradient id="radial-gradient" cx="199.71" cy="41.27" r="395.27" gradientTransform="matrix(1, 0, 0, -1, 0, 609.43)" gradientUnits="userSpaceOnUse"><stop offset="0" stop-color="#b8d435"/><stop offset="0.12" stop-color="#b2d236"/><stop offset="0.29" stop-color="#a1cc39"/><stop offset="0.47" stop-color="#86c23d"/><stop offset="0.67" stop-color="#60b543"/><stop offset="0.82" stop-color="#3fa948"/><stop offset="1" stop-color="#49a649"/></radialGradient><linearGradient id="linear-gradient-2" x1="217.6" y1="-275.38" x2="572.22" y2="-275.38" gradientTransform="matrix(1, 0, 0, -1, 0, 609.43)" gradientUnits="userSpaceOnUse"><stop offset="0" stop-color="#338a47"/><stop offset="0.42" stop-color="#256232"/><stop offset="0.79" stop-color="#1a4422"/><stop offset="1" stop-color="#16391c"/></linearGradient><radialGradient id="radial-gradient-2" cx="927.67" cy="-220.24" r="420.14" gradientTransform="matrix(1, 0, 0, -1, 0, 609.43)" gradientUnits="userSpaceOnUse"><stop offset="0" stop-color="#ffc713"/><stop offset="0.15" stop-color="#fcbd15"/><stop offset="0.39" stop-color="#f5a41a"/><stop offset="0.7" stop-color="#e97a23"/><stop offset="0.9" stop-color="#e05b29"/><stop offset="1" stop-color="#dd5430"/></radialGradient><linearGradient id="linear-gradient-3" x1="1208.94" y1="102.7" x2="923.05" y2="-20.17" gradientTransform="matrix(1, 0, 0, -1, 0, 609.43)" gradientUnits="userSpaceOnUse"><stop offset="0" stop-color="#ca2027"/><stop offset="0.6" stop-color="#c73927"/><stop offset="1" stop-color="#c64427"/></linearGradient><radialGradient id="radial-gradient-3" cx="765.3" cy="346.01" r="408.27" gradientTransform="matrix(1, 0, 0, -1, 0, 609.43)" gradientUnits="userSpaceOnUse"><stop offset="0" stop-color="#c7eafb"/><stop offset="0.13" stop-color="#bde4f8"/><stop offset="0.35" stop-color="#a4d4f0"/><stop offset="0.62" stop-color="#79bae3"/><stop offset="0.94" stop-color="#4096d1"/><stop offset="1" stop-color="#358fce"/></radialGradient></defs><title>weDevs color logo</title><g id="Layer_2" data-name="Layer 2"><g id="Layer_1-2" data-name="Layer 1"><path class="cls-1" d="M245.7,338.34s-39.82-232.09,182.68-260c0,0,185.29-25,254.68,199.26C682.58,277.56,404.65,297.55,245.7,338.34Z"/><path class="cls-2" d="M682.58,277.56s-609,16.25-662,210.14c0,0-132.62,265.25,275.16,613.87,0,0,181.54,110.2,318.23-40.79,0,0-234.53-227.54-312-373.82,0,0,212.1-223.47,407.94-317.41A562.1,562.1,0,0,0,682.58,277.56Z"/><path class="cls-3" d="M300,690.54s-165.3,171-27.63,324.24c0,0,134.57,131.49,299.86,18.37C572.22,1033.15,376.37,803.66,300,690.54Z"/><path class="cls-4" d="M378.49,613S673.15,795.53,845.11,791.47a1430.42,1430.42,0,0,0,164.47-452.8S1205.43,399.94,1199.25,612c0,0,22.43,162.53-178.78,407.78,0,0-132.62,155-265.08,128.56,0,0-259.07-119.29-455.08-457.84A959.65,959.65,0,0,1,378.49,613Z"/><path class="cls-5" d="M1003.41,390.19S1168.7,458,1153.91,626.34c0,0-34.62,230.95-309.94,172.77C843.48,799.11,969.93,519.23,1003.41,390.19Z"/><path class="cls-6" d="M189.47,356.06S143,128.68,357.52,39c0,0,60.79-36.73,297.26-38.84,0,0,263.14-10.24,352.85,159,0,0,83.54,190.16-164.15,639.88l-28.6-5.53s-20.16-3.58-77.53-17.39c0,0,21.45-431.35-99.47-584.29,0,0-84-139.12-241.52-107.11,0,0-173.74,51.69-150.66,253.55C245.7,338.34,238.39,341.43,189.47,356.06Z"/></g></g></svg>