<?xml version="1.0" encoding="UTF-8"?>
<svg id="Layer_1" data-name="Layer 1" xmlns="http://www.w3.org/2000/svg" version="1.1" viewBox="0 0 1200 630">
  <defs>
    <style>
      .cls-1 {
        fill: #808285;
        stroke-width: 0px;
      }
    </style>
  </defs>
  <path class="cls-1" d="M952.56,196.49l108.51-.03c44.6,2.06,74.83,20.12,77.49,67.76,1.53,27.47-4.78,52.67-29.7,67.29l-.15.78,34.69,99.38h-83.87l-23.02-80.48-6.15-.35v80.83h-77.79v-235.19ZM1029.13,304.06h14.28c2.61,0,6.92-4.13,8.09-6.49,3.7-7.44,4-29.09-2.3-35.16-.84-.81-4.9-3.32-5.79-3.32h-14.28v44.97Z"/>
  <polygon class="cls-1" points="688.19 382.46 757.47 197.7 839.52 197.7 751.7 432.29 611.01 432.29 611.01 197.7 687.28 197.7 688.19 198.62 688.19 382.46"/>
  <polygon class="cls-1" points="405.6 197.7 405.6 431.68 328.41 431.68 328.41 246.93 258.22 432.29 177.09 432.29 263.99 197.7 405.6 197.7"/>
  <polygon class="cls-1" points="230.57 198.31 230.57 235.69 157.34 431.68 70.73 431.68 139.41 262.73 56.76 262.73 56.76 198.31 230.57 198.31"/>
  <polygon class="cls-1" points="933.11 198.31 933.11 432.9 854.71 432.9 854.71 262.12 846.81 262.13 848.75 209.67 869.6 198.31 933.11 198.31"/>
  <polygon class="cls-1" points="478.52 340.52 530.18 433.5 479.44 433.5 478.52 432.59 478.52 340.52"/>
  <polygon class="cls-1" points="534.44 198.92 534.44 291.3 483.39 198.92 534.44 198.92"/>
</svg>