<svg width="4475" height="922" viewBox="0 0 4475 922" fill="none" xmlns="http://www.w3.org/2000/svg">
<path d="M1538.5 453.744C1562.89 412.853 1586.33 371.352 1612.3 331.497C1618.85 321.443 1633.39 310.564 1644.42 310.394C1747.78 308.796 1851.18 309.446 1959.58 309.446C1959.58 322.974 1959.6 335.245 1959.58 347.515C1959.41 433.603 1957.98 519.714 1959.51 605.772C1960.45 658.52 1973.82 706.987 2022.78 738.215C2128.88 805.882 2258.72 739.744 2262.55 613.155C2265.12 528.36 2260.67 443.354 2259.46 358.442C2259.23 342.3 2259.42 326.152 2259.42 307.773C2311.29 307.773 2362.02 307.773 2413.02 307.773C2414.23 309.3 2416.85 311.071 2416.85 312.847C2417.06 420.962 2422.92 529.467 2415.75 637.103C2404.31 808.832 2275.89 920.127 2100.34 920.39C1940.59 920.629 1815.39 804.646 1802.15 638.336C1796.08 562.017 1799.81 484.926 1798.72 408.191C1798.55 396.162 1796.37 384.162 1795.11 372.148C1791.42 370.757 1787.72 369.365 1784.03 367.973C1757.02 406.014 1730.02 444.054 1701.09 481.106C1696.05 459.287 1692.94 438.455 1689.12 412.884C1684.88 413.38 1670.8 410.897 1666.74 416.153C1632.66 460.324 1590.62 473.153 1538.5 453.744Z" fill="#10C771"/>
<path d="M936.544 307.961C1074.73 312.217 1174.3 373.035 1226.17 498.495C1242.4 537.74 1240.36 584.684 1245.72 628.221C1248.98 654.63 1238.66 663.49 1209.76 663.019C1078.35 660.882 946.886 661.888 815.444 661.898C809.931 661.898 804.419 663.234 798.679 663.978C823.572 751.351 944.947 794.597 1021.67 742.007C1050.9 721.968 1069.43 719.262 1088.89 751.47C1102.67 774.267 1118.93 795.705 1135.51 816.62C1150.04 834.945 1145.18 847.398 1128.04 860.043C1022.6 937.801 871.869 943.33 764.29 868.125C669.978 802.194 629.685 706.599 635.487 593.488C643.78 431.811 765.652 316.816 936.544 307.961ZM873.578 476.211C850.953 497.62 828.328 519.028 802.897 543.092C896.382 543.092 981.382 543.092 1068.48 543.092C1032.21 474.828 951.831 446.994 873.578 476.211Z" fill="#10C771"/>
<path d="M2758.9 900.263C2649.21 934.297 2552.51 901.778 2458.32 854.182C2442.26 846.068 2436.79 834.049 2449.06 817.466C2469.04 790.452 2487.35 762.107 2508.83 736.386C2513.09 731.283 2529.77 732.356 2538.48 735.977C2560.9 745.303 2581.04 763.117 2603.99 767.455C2634.9 773.297 2668.46 774.135 2699.16 768.204C2713.96 765.342 2732.72 743.139 2734.75 727.723C2736.14 717.234 2713.53 699.322 2698.19 691.978C2679.85 683.203 2657.13 684.136 2637.52 677.352C2598.21 663.748 2556.83 652.657 2521.51 631.734C2447.1 587.65 2435.25 455.133 2495.91 386.713C2579.38 292.558 2760.4 281.171 2856.4 364.037C2883.74 387.635 2883.76 397.171 2856.58 421.271C2850.49 426.673 2843.95 431.706 2838.6 437.777C2809.9 470.348 2782.42 489.616 2736.64 458.79C2717.05 445.599 2682.76 449.193 2656.42 453.319C2644.42 455.2 2629.88 475.836 2627.29 489.943C2625.69 498.705 2642.41 516.847 2654.29 520.919C2690.34 533.28 2727.71 542.562 2765.18 549.908C2836.2 563.829 2883.54 601.382 2897.9 674.691C2912.35 748.442 2893.17 811.267 2833.36 858.098C2811.8 874.976 2785.67 886.021 2758.9 900.263Z" fill="#10C771"/>
<path d="M226.677 482.394C172.862 522.539 151.739 576.359 153.559 643.005C155.902 728.806 154.129 814.72 154.129 901.863C101.556 901.863 53.4591 901.863 3.19271 901.863C2.0723 889.93 0.550316 881.082 0.517498 872.23C0.199042 786.168 -0.108767 700.104 0.0374109 614.041C0.3905 406.225 194.883 261.326 396.294 324.165C394.502 332.514 391.041 340.018 386.139 341.123C365.436 345.788 348.572 352.319 349.214 378.304C349.323 382.686 344.324 389.036 340.002 391.392C308.736 408.435 325.811 420.143 343.569 432.973C361.669 446.049 379.073 460.087 404.302 479.487C375.474 473.642 357.852 470.069 340.23 466.497C340.23 466.497 337.765 467.041 334.578 464.682C313.518 460.961 295.645 459.599 275.419 458.059C282.831 448.049 288.496 440.399 295.323 431.179C250.904 421.457 225.394 435.858 206.607 478.888C213.548 480.1 220.112 481.247 226.677 482.394Z" fill="#0BC46A"/>
<path d="M1537.97 453.755C1590.62 473.14 1632.66 460.311 1666.74 416.139C1670.8 410.884 1684.88 413.367 1689.12 412.871C1692.94 438.442 1696.05 459.273 1699.09 482.444C1697.42 487.87 1695.83 490.956 1690.9 495.818C1686.57 500.008 1685.58 502.423 1684.58 504.836C1681.04 510.537 1677.5 516.239 1670.46 523.383C1664.9 526.108 1663.52 527.923 1662.84 530.269C1662.84 530.269 1662.7 530.475 1661.09 531.042C1657.61 532.846 1656.34 534.539 1655.68 536.688C1650.64 545.712 1645.6 554.737 1638.11 565.952C1635.66 568.143 1634.76 570.74 1634.76 570.74C1634.76 570.74 1635.35 571.767 1633.35 572.996C1630.41 576.323 1629.47 578.419 1628.53 580.515C1627.87 581.759 1627.22 583.003 1622.79 586.049C1624.61 600.928 1630.21 614.006 1635.81 627.083C1635.81 627.083 1635.73 627.856 1635.66 629.901C1644.61 642.089 1653.63 652.231 1662.65 662.373C1662.65 662.373 1663.28 662.574 1663.61 664.236C1664.79 667.659 1666.14 668.823 1668 669.39C1668 669.39 1669.82 670.054 1669.88 672.813C1672.13 678.213 1674.32 680.855 1676.5 683.497C1676.5 683.497 1677.39 684.083 1677.59 685.792C1679.89 690.258 1681.98 693.014 1684.08 695.771C1690.78 704.158 1697.47 712.545 1705.22 725.458C1710.37 733.246 1714.45 736.507 1718.54 739.768C1718.54 739.768 1720.12 740.677 1719.78 744.333C1722.9 760.282 1726.36 772.575 1729.82 784.868C1727.61 786.158 1725.4 787.449 1723.19 788.74C1694.9 755.824 1666.61 722.908 1635.63 686.867C1615.85 711.926 1600.17 731.788 1584.71 751.372C1559.98 741.109 1540.34 703.025 1509.1 739.418C1504.18 750.304 1499.26 761.191 1491.87 774.536C1489.39 776.994 1487.92 779.983 1487.92 779.983C1465.35 816.479 1443.64 853.556 1419.54 889.009C1414.31 896.707 1400.58 902.291 1390.63 902.512C1333.76 903.777 1276.84 903.126 1213.66 903.126C1220.81 890.671 1225.9 880.003 1232.58 870.446C1291.84 785.655 1351.01 700.795 1411.18 616.648C1422.32 601.069 1425.44 588.271 1411.03 569.244C1407.34 562.348 1404.59 559.861 1401.84 557.374C1401.84 557.374 1399.11 555.886 1398.44 551.973C1396.52 538.391 1395.27 528.723 1393.45 514.63C1412.68 517.291 1428.28 520.805 1443.97 521.206C1457.2 521.545 1474.61 522.963 1483 515.666C1503.4 497.941 1519.63 475.423 1537.54 454.835C1537.54 454.835 1537.44 453.779 1537.97 453.755Z" fill="#0BC46A"/>
<mask id="path-6-inside-1_7819_5137" fill="white">
<path d="M3136.35 898.644C3085.13 898.644 3034.71 898.644 2987.22 896.009C3035.1 893.373 3080.03 893.373 3125.42 893.373V837.696C3112.83 842.916 3104.61 847.106 3095.94 849.793C3038.01 867.729 3010.36 847.305 3010.35 786.885C3010.34 697.634 3010.45 608.382 3010.22 519.132C3010.19 507.884 3008.47 496.64 3007.53 485.395C3003.8 485.654 3000.07 485.915 2996.35 486.175C2996.35 525.03 2997.18 563.915 2995.81 602.721C2995.42 613.613 2988.53 624.276 2984.63 635.044C2984.12 546.403 2983.6 457.762 2986.41 366.752C2993.38 390.28 2997.04 416.177 3000.7 442.074C3009.13 431.517 3010.24 420.981 3010.26 410.442C3010.42 335.705 3011.17 260.953 3009.96 186.235C3009.45 155.029 3007.9 125.548 3044.2 112.06C3054.15 108.365 3067.29 97.0158 3072.39 100.088C3081.64 105.659 3090.68 119.048 3091.54 129.834C3096.46 191.242 3098.09 252.911 3102.89 314.331C3103.95 327.845 3113.31 340.71 3118.85 353.874C3122.16 352.737 3125.48 351.599 3128.79 350.462C3128.79 241.637 3129.22 132.804 3127.62 24.002C3127.53 18.0871 3110.92 8.40509 3101.26 7.35352C3064.61 3.36728 3027.65 2.21334 2990.8 0H3136.35V898.644ZM3120.29 372.757C3119.47 373.55 3117.88 374.988 3117.92 375.046C3119.7 377.161 3121.64 379.149 3126.03 378.771C3124.12 376.766 3122.21 374.761 3120.29 372.757Z"/>
</mask>
<path d="M3136.35 898.644C3085.13 898.644 3034.71 898.644 2987.22 896.009C3035.1 893.373 3080.03 893.373 3125.42 893.373V837.696C3112.83 842.916 3104.61 847.106 3095.94 849.793C3038.01 867.729 3010.36 847.305 3010.35 786.885C3010.34 697.634 3010.45 608.382 3010.22 519.132C3010.19 507.884 3008.47 496.64 3007.53 485.395C3003.8 485.654 3000.07 485.915 2996.35 486.175C2996.35 525.03 2997.18 563.915 2995.81 602.721C2995.42 613.613 2988.53 624.276 2984.63 635.044C2984.12 546.403 2983.6 457.762 2986.41 366.752C2993.38 390.28 2997.04 416.177 3000.7 442.074C3009.13 431.517 3010.24 420.981 3010.26 410.442C3010.42 335.705 3011.17 260.953 3009.96 186.235C3009.45 155.029 3007.9 125.548 3044.2 112.06C3054.15 108.365 3067.29 97.0158 3072.39 100.088C3081.64 105.659 3090.68 119.048 3091.54 129.834C3096.46 191.242 3098.09 252.911 3102.89 314.331C3103.95 327.845 3113.31 340.71 3118.85 353.874C3122.16 352.737 3125.48 351.599 3128.79 350.462C3128.79 241.637 3129.22 132.804 3127.62 24.002C3127.53 18.0871 3110.92 8.40509 3101.26 7.35352C3064.61 3.36728 3027.65 2.21334 2990.8 0H3136.35V898.644ZM3120.29 372.757C3119.47 373.55 3117.88 374.988 3117.92 375.046C3119.7 377.161 3121.64 379.149 3126.03 378.771C3124.12 376.766 3122.21 374.761 3120.29 372.757Z" fill="#121833"/>
<path d="M3136.35 898.644L3136.35 903.644L3141.35 903.644V898.644H3136.35ZM2987.22 896.009L2986.95 891.016L2986.95 901.001L2987.22 896.009ZM3125.42 893.373L3125.42 898.373L3130.42 898.373V893.373H3125.42ZM3125.42 837.696H3130.42V830.21L3123.5 833.078L3125.42 837.696ZM3095.94 849.793L3094.46 845.017L3094.46 845.017L3095.94 849.793ZM3010.35 786.885L3015.35 786.884L3015.35 786.884L3010.35 786.885ZM3010.22 519.132L3005.22 519.144L3005.22 519.144L3010.22 519.132ZM3007.53 485.395L3012.51 484.978L3012.1 480.063L3007.18 480.407L3007.53 485.395ZM2996.35 486.175L2996 481.187L2991.35 481.511V486.175H2996.35ZM2995.81 602.721L3000.81 602.898L3000.81 602.898L2995.81 602.721ZM2984.63 635.044L2979.63 635.073L2989.33 636.749L2984.63 635.044ZM2986.41 366.752L2991.2 365.331L2981.41 366.598L2986.41 366.752ZM3000.7 442.074L2995.75 442.774L2997.37 454.254L3004.61 445.195L3000.7 442.074ZM3010.26 410.442L3005.26 410.432L3005.26 410.432L3010.26 410.442ZM3009.96 186.235L3004.96 186.316L3004.96 186.317L3009.96 186.235ZM3044.2 112.06L3045.95 116.747L3045.95 116.747L3044.2 112.06ZM3072.39 100.088L3074.97 95.8051L3074.97 95.8044L3072.39 100.088ZM3091.54 129.834L3086.56 130.233L3086.56 130.233L3091.54 129.834ZM3102.89 314.331L3107.87 313.941L3107.87 313.941L3102.89 314.331ZM3118.85 353.874L3114.24 355.813L3116.06 360.121L3120.48 358.603L3118.85 353.874ZM3128.79 350.462L3130.41 355.191L3133.79 354.031V350.462H3128.79ZM3127.62 24.002L3132.62 23.9285L3132.62 23.9284L3127.62 24.002ZM3101.26 7.35352L3101.8 2.38285L3101.8 2.38283L3101.26 7.35352ZM2990.8 0V-5L2990.5 4.991L2990.8 0ZM3136.35 0H3141.35V-5H3136.35V0ZM3120.29 372.757L3123.91 369.307L3120.45 365.678L3116.84 369.147L3120.29 372.757ZM3117.92 375.046L3113.96 378.1L3114.03 378.186L3114.1 378.268L3117.92 375.046ZM3126.03 378.771L3126.46 383.752L3136.83 382.857L3129.65 375.32L3126.03 378.771ZM3136.35 898.644L3136.35 893.644C3085.1 893.644 3034.83 893.642 2987.5 891.016L2987.22 896.009L2986.95 901.001C3034.6 903.645 3085.16 903.644 3136.35 903.644L3136.35 898.644ZM2987.22 896.009L2987.5 901.001C3035.21 898.374 3080.02 898.373 3125.42 898.373L3125.42 893.373L3125.42 888.373C3080.05 888.373 3034.98 888.372 2986.95 891.016L2987.22 896.009ZM3125.42 893.373H3130.42V837.696H3125.42H3120.42V893.373H3125.42ZM3125.42 837.696L3123.5 833.078C3110.43 838.498 3102.85 842.417 3094.46 845.017L3095.94 849.793L3097.42 854.569C3106.37 851.796 3115.22 847.335 3127.33 842.315L3125.42 837.696ZM3095.94 849.793L3094.46 845.017C3065.92 853.855 3046.56 852.653 3034.39 843.696C3022.22 834.74 3015.36 816.651 3015.35 786.884L3010.35 786.885L3005.35 786.886C3005.36 817.539 3012.32 839.873 3028.46 851.75C3044.6 863.625 3068.03 863.668 3097.42 854.569L3095.94 849.793ZM3010.35 786.885L3015.35 786.884C3015.34 697.642 3015.45 608.377 3015.22 519.119L3010.22 519.132L3005.22 519.144C3005.45 608.387 3005.34 697.625 3005.35 786.886L3010.35 786.885ZM3010.22 519.132L3015.22 519.119C3015.19 507.619 3013.41 495.744 3012.51 484.978L3007.53 485.395L3002.55 485.811C3003.53 497.536 3005.2 508.148 3005.22 519.144L3010.22 519.132ZM3007.53 485.395L3007.18 480.407C3005.32 480.537 3003.45 480.667 3001.59 480.797C2999.73 480.927 2997.86 481.057 2996 481.187L2996.35 486.175L2996.69 491.163C2998.56 491.033 3000.42 490.903 3002.29 490.773C3004.15 490.642 3006.01 490.512 3007.88 490.382L3007.53 485.395ZM2996.35 486.175H2991.35C2991.35 525.174 2992.18 563.855 2990.81 602.544L2995.81 602.721L3000.81 602.898C3002.18 563.975 3001.35 524.885 3001.35 486.175H2996.35ZM2995.81 602.721L2990.81 602.544C2990.65 607.053 2989.13 611.756 2986.93 616.991C2984.88 621.866 2981.91 627.864 2979.93 633.339L2984.63 635.044L2989.33 636.749C2991.25 631.456 2993.68 626.739 2996.15 620.867C2998.46 615.356 3000.58 609.281 3000.81 602.898L2995.81 602.721ZM2984.63 635.044L2989.63 635.015C2989.12 546.361 2988.61 457.81 2991.41 366.906L2986.41 366.752L2981.41 366.598C2978.6 457.714 2979.12 546.446 2979.63 635.073L2984.63 635.044ZM2986.41 366.752L2981.62 368.173C2988.46 391.281 2992.08 416.797 2995.75 442.774L3000.7 442.074L3005.65 441.375C3002 415.557 2998.3 389.278 2991.2 365.331L2986.41 366.752ZM3000.7 442.074L3004.61 445.195C3014.09 433.322 3015.24 421.404 3015.26 410.453L3010.26 410.442L3005.26 410.432C3005.24 420.557 3004.17 429.712 2996.79 438.954L3000.7 442.074ZM3010.26 410.442L3015.26 410.453C3015.42 335.769 3016.17 260.933 3014.96 186.154L3009.96 186.235L3004.96 186.317C3006.17 260.974 3005.42 335.641 3005.26 410.432L3010.26 410.442ZM3009.96 186.235L3014.96 186.154C3014.7 170.238 3014.26 156.014 3018.05 144.007C3021.66 132.561 3029.2 122.968 3045.95 116.747L3044.2 112.06L3042.46 107.373C3022.9 114.639 3013.07 126.531 3008.51 140.999C3004.12 154.906 3004.71 171.026 3004.96 186.316L3009.96 186.235ZM3044.2 112.06L3045.95 116.747C3051.41 114.715 3057.88 110.535 3062.57 107.891C3065.12 106.45 3067.19 105.419 3068.79 104.894C3070.63 104.29 3070.52 104.799 3069.81 104.371L3072.39 100.088L3074.97 95.8044C3071.71 93.8403 3068.04 94.616 3065.68 95.3915C3063.07 96.2462 3060.27 97.7071 3057.66 99.1817C3052.01 102.368 3046.94 105.709 3042.46 107.373L3044.2 112.06ZM3072.39 100.088L3069.81 104.371C3073.63 106.673 3077.7 110.804 3080.92 115.74C3084.16 120.694 3086.21 125.937 3086.56 130.233L3091.54 129.834L3096.52 129.435C3096 122.945 3093.1 116.1 3089.29 110.27C3085.47 104.423 3080.4 99.0743 3074.97 95.8051L3072.39 100.088ZM3091.54 129.834L3086.56 130.233C3089.01 160.859 3090.64 191.561 3092.26 222.341C3093.89 253.099 3095.5 283.936 3097.9 314.721L3102.89 314.331L3107.87 313.941C3105.48 283.306 3103.87 252.598 3102.25 221.815C3100.63 191.053 3098.99 160.217 3096.52 129.435L3091.54 129.834ZM3102.89 314.331L3097.9 314.721C3098.51 322.44 3101.46 329.724 3104.69 336.41C3108.09 343.454 3111.51 349.328 3114.24 355.813L3118.85 353.874L3123.46 351.935C3120.65 345.256 3116.62 338.116 3113.69 332.058C3110.59 325.642 3108.33 319.737 3107.87 313.941L3102.89 314.331ZM3118.85 353.874L3120.48 358.603C3123.79 357.466 3127.1 356.328 3130.41 355.191L3128.79 350.462L3127.16 345.733C3123.85 346.87 3120.54 348.008 3117.23 349.145L3118.85 353.874ZM3128.79 350.462H3133.79C3133.79 241.664 3134.22 132.778 3132.62 23.9285L3127.62 24.002L3122.62 24.0754C3124.22 132.83 3123.79 241.609 3123.79 350.462H3128.79ZM3127.62 24.002L3132.62 23.9284C3132.56 20.3925 3130.26 17.4597 3128.39 15.5543C3126.29 13.4117 3123.54 11.3695 3120.64 9.59092C3114.94 6.09376 3107.65 3.01893 3101.8 2.38285L3101.26 7.35352L3100.72 12.3242C3104.54 12.7397 3110.38 15.0316 3115.42 18.1171C3117.89 19.6298 3119.91 21.1829 3121.25 22.5521C3122.82 24.1585 3122.63 24.654 3122.62 24.0755L3127.62 24.002ZM3101.26 7.35352L3101.8 2.38283C3064.99 -1.62075 3027.75 -2.78925 2991.1 -4.991L2990.8 0L2990.5 4.991C3027.54 7.21593 3064.23 8.35531 3100.72 12.3242L3101.26 7.35352ZM2990.8 0V5H3136.35V0V-5H2990.8V0ZM3136.35 0H3131.35V898.644H3136.35H3141.35V0H3136.35ZM3120.29 372.757L3116.84 369.147C3116.44 369.526 3115.91 370.009 3115.36 370.533C3115.11 370.767 3114.84 371.022 3114.63 371.233C3114.53 371.327 3114.38 371.485 3114.22 371.658C3114.17 371.722 3113.98 371.933 3113.79 372.216C3113.71 372.328 3113.47 372.697 3113.26 373.222C3113.16 373.48 3112.97 374.025 3112.93 374.747C3112.88 375.48 3112.98 376.826 3113.96 378.1L3117.92 375.046L3121.88 371.992C3122.86 373.264 3122.95 374.607 3122.91 375.338C3122.87 376.056 3122.68 376.597 3122.58 376.851C3122.38 377.367 3122.14 377.725 3122.07 377.822C3121.9 378.078 3121.74 378.251 3121.73 378.268C3121.66 378.349 3121.62 378.379 3121.68 378.317C3121.78 378.219 3121.96 378.053 3122.2 377.821C3122.64 377.413 3123.32 376.781 3123.75 376.367L3120.29 372.757ZM3117.92 375.046L3114.1 378.268C3115.01 379.357 3116.43 380.999 3118.52 382.19C3120.76 383.462 3123.38 384.018 3126.46 383.752L3126.03 378.771L3125.6 373.789C3124.29 373.902 3123.74 373.653 3123.47 373.497C3123.05 373.26 3122.61 372.851 3121.74 371.823L3117.92 375.046ZM3126.03 378.771L3129.65 375.32C3127.74 373.322 3125.82 371.305 3123.91 369.307L3120.29 372.757L3116.68 376.207C3118.59 378.218 3120.49 380.21 3122.41 382.221L3126.03 378.771Z" fill="white" mask="url(#path-6-inside-1_7819_5137)"/>
<path d="M341.739 467.945C357.852 470.056 375.474 473.629 404.302 479.473C379.073 460.074 361.668 446.036 343.569 432.96C325.811 420.129 308.735 408.422 340.002 391.378C344.323 389.022 349.322 382.673 349.214 378.29C348.571 352.306 365.436 345.775 386.138 341.11C391.041 340.005 394.501 332.501 398.729 325.398C402.556 323.744 406.278 324.633 412.478 328.379C417.236 331.891 419.516 332.544 421.795 333.198C421.795 333.198 421.026 332.889 421.118 335.44C432.492 341.43 443.773 344.871 455.054 348.311C455.054 348.311 454.748 348.755 455.865 350.279C460.621 353.077 464.262 354.352 467.903 355.628C467.903 355.628 468.684 355.44 469.104 358.134C475.955 363.772 482.386 366.716 488.817 369.66C488.817 369.66 489.684 369.478 490.584 371.583C497.59 377.668 503.697 381.649 509.803 385.629C594.352 459.056 621.771 553.899 614.638 662.28C612.585 693.471 613.619 724.865 609.422 758.473C597.809 758.788 588.504 753.013 582.459 755.42C546.195 769.862 543.397 743.028 539.253 720.608C532.975 686.642 529.693 652.133 523.939 618.057C517.437 579.557 469.832 529.839 436.105 526.718C437.702 534.845 439.193 542.429 440.683 550.014C408.205 523.145 375.727 496.276 341.739 467.945Z" fill="#10C771"/>
<path d="M1534.81 455.259C1519.63 475.412 1503.4 497.93 1483 515.655C1474.61 522.952 1457.2 521.535 1443.97 521.195C1428.28 520.794 1412.68 517.281 1393.45 514.619C1395.27 528.712 1396.52 538.38 1398.13 550.442C1342.47 473.552 1286.44 394.27 1225.76 308.413C1275.39 308.413 1316.86 312.204 1357.32 307.454C1407.88 301.52 1439.3 318.137 1463.09 363.656C1480.61 397.194 1508.69 425.215 1534.81 455.259Z" fill="#10C771"/>
<path d="M440.789 552.957C439.193 542.45 437.702 534.865 436.105 526.738C469.832 529.86 517.437 579.577 523.939 618.078C529.693 652.154 532.975 686.663 539.253 720.628C543.397 743.049 546.195 769.883 582.459 755.441C588.504 753.034 597.809 758.808 608.405 761.217C610.715 805.988 610.227 850.344 607.434 897.832C605.127 900.964 602.621 902.854 602.621 902.854C598.662 903.257 594.703 903.659 585.455 902.305C559.499 900.431 538.831 900.316 518.163 900.2C503.653 900.331 489.143 900.462 470.361 897.405C464.699 880.683 462.548 867.177 462.056 853.61C460.44 809.099 459.427 764.567 458.181 720.042C454.648 673.018 451.338 625.975 447.36 578.987C446.697 571.159 443.124 563.576 440.789 552.957Z" fill="#0BC46A"/>
<path d="M1511.72 739.635C1540.33 703.037 1559.98 741.121 1584.71 751.384C1600.17 731.8 1615.85 711.938 1635.63 686.879C1666.61 722.92 1694.9 755.836 1723.19 788.752C1725.4 787.461 1727.61 786.17 1729.82 784.88C1726.36 772.587 1722.9 760.294 1719.71 745.251C1754.55 793.804 1789.11 845.107 1826.9 901.208C1755.33 901.208 1692.15 902.025 1629.06 900.2C1620.96 899.966 1611.12 887.274 1605.74 878.191C1582.72 839.338 1561.65 799.329 1538.48 760.572C1533.31 751.937 1522.53 746.662 1511.72 739.635Z" fill="#10C771"/>
<path d="M2987.9 1.03516C3027.65 2.2244 3064.61 3.37849 3101.26 7.36472C3110.92 8.4161 3127.53 18.0984 3127.62 24.0133C3129.22 132.815 3128.79 241.647 3128.79 350.472C3125.48 351.61 3122.16 352.747 3118.85 353.885C3113.31 340.721 3103.95 327.856 3102.89 314.342C3098.09 252.922 3096.45 191.253 3091.54 129.845C3090.68 119.058 3081.64 105.671 3072.39 100.099C3067.29 97.0262 3054.15 108.375 3044.2 112.07C3007.9 125.558 3009.45 155.04 3009.96 186.246C3011.17 260.964 3010.42 335.716 3010.26 410.454C3010.24 420.992 3009.13 431.528 3000.7 442.085C2997.04 416.188 2993.38 390.29 2987.16 363.568C2984.09 355.266 2983.59 347.788 2986.41 336.732C2991.36 291.925 2993.18 250.7 2994.17 209.455C2994.23 207.097 2987.52 204.577 2983.96 202.132C2983.5 190.128 2983.03 178.125 2985.37 162.812C2992.5 142.95 3007.27 125.471 2983.93 111.366C2984.28 74.9305 2984.64 38.495 2987.9 1.03516Z" fill="#0F142D"/>
<path d="M2983.93 637.784C2988.53 624.276 2995.42 613.613 2995.81 602.72C2997.18 563.914 2996.35 525.029 2996.35 486.174C3000.07 485.914 3003.8 485.654 3007.53 485.395C3008.47 496.64 3010.19 507.883 3010.22 519.131C3010.44 608.382 3010.34 697.633 3010.35 786.885C3010.36 847.305 3038.01 867.729 3095.94 849.793C3104.61 847.106 3112.83 842.916 3125.42 837.696C3125.42 856.574 3125.42 872.582 3125.42 893.373C3080.03 893.373 3035.1 893.373 2986.98 893.384C2983.31 885.9 2982.83 878.405 2985.1 867.897C2986.64 860.422 2985.44 855.96 2984.24 851.498C2983.78 843.902 2983.33 836.306 2985.36 824.08C2998.68 792.522 3005.04 765.772 2984.66 740.097C2984.17 736.904 2983.67 733.712 2986.38 727.398C2987.94 703.835 2986.3 683.392 2984.65 662.948C2984.18 655.474 2983.71 647.999 2983.93 637.784Z" fill="#0F142D"/>
<path d="M229.254 481.937C220.112 481.252 213.548 480.105 206.606 478.893C225.394 435.863 250.903 421.462 295.323 431.184C288.496 440.404 282.83 448.054 275.419 458.063C295.644 459.604 313.517 460.966 333.539 463.97C301.069 470.9 266.45 476.189 229.254 481.937Z" fill="#10C771"/>
<path d="M2983.24 205.324C2987.52 204.569 2994.23 207.09 2994.17 209.448C2993.18 250.693 2991.36 291.918 2987.12 333.989C2983.86 292.728 2983.19 250.625 2983.24 205.324Z" fill="#121833"/>
<path d="M458.142 723.203C459.427 764.568 460.44 809.101 462.056 853.611C462.549 867.178 464.699 880.685 467.311 896.794C464.877 891.551 458.187 883.782 458.061 875.907C457.266 826.072 457.924 776.213 458.142 723.203Z" fill="#10C771"/>
<path d="M2983.91 743.219C3005.04 765.783 2998.68 792.533 2986.11 821.318C2983.96 797.559 2983.56 771.945 2983.91 743.219Z" fill="#121833"/>
<path d="M2983.9 666.031C2986.3 683.403 2987.94 703.845 2987.09 725.062C2984.11 706.924 2983.63 688.014 2983.9 666.031Z" fill="#121833"/>
<path d="M1635.36 624.411C1630.21 614.005 1624.61 600.928 1620.93 587.047C1626.87 598.076 1630.89 609.908 1635.36 624.411Z" fill="#10C771"/>
<path d="M520.667 901.147C538.831 900.316 559.499 900.432 582.614 901.258C564.431 902.01 543.801 902.052 520.667 901.147Z" fill="#10C771"/>
<path d="M1662.31 660.087C1653.63 652.226 1644.61 642.083 1635.86 629.562C1644.74 637.391 1653.36 647.598 1662.31 660.087Z" fill="#10C771"/>
<path d="M453.752 346.351C443.773 344.886 432.492 341.445 421.451 335.207C431.944 336.398 442.197 340.387 453.752 346.351Z" fill="#0BC46A"/>
<path d="M487.745 367.916C482.386 366.737 475.955 363.793 469.235 358.535C474.855 359.531 480.764 362.841 487.745 367.916Z" fill="#0BC46A"/>
<path d="M508.623 383.856C503.697 381.671 497.59 377.691 490.707 372.031C495.768 374.254 501.606 378.157 508.623 383.856Z" fill="#0BC46A"/>
<path d="M2983.49 853.766C2985.44 855.948 2986.64 860.41 2985.94 865.16C2983.6 862.314 2983.17 859.18 2983.49 853.766Z" fill="#121833"/>
<path d="M1684.27 694.387C1681.98 692.997 1679.89 690.241 1677.38 686.266C1679.47 687.705 1681.96 690.362 1684.27 694.387Z" fill="#10C771"/>
<path d="M1718.28 737.693C1714.45 736.502 1710.36 733.241 1705.49 728.164C1709.15 729.439 1713.58 732.531 1718.28 737.693Z" fill="#10C771"/>
<path d="M466.792 354.059C464.262 354.369 460.622 353.094 456.026 350.076C458.608 349.714 462.144 351.095 466.792 354.059Z" fill="#0BC46A"/>
<path d="M1676.82 681.637C1674.32 680.854 1672.13 678.213 1669.85 673.777C1672.21 674.582 1674.68 677.18 1676.82 681.637Z" fill="#10C771"/>
<path d="M1402.24 559.203C1404.59 559.876 1407.34 562.363 1410.23 566.801C1407.79 566.174 1405.21 563.596 1402.24 559.203Z" fill="#10C771"/>
<path d="M603.576 903.581C602.621 902.852 605.127 900.962 605.906 900.801C607.256 902.622 606.538 903.845 603.576 903.581Z" fill="#10C771"/>
<path d="M1488.92 779.732C1487.92 779.989 1489.39 777 1489.95 776.398C1491.45 777.205 1491.25 778.43 1488.92 779.732Z" fill="#10C771"/>
<path d="M1667.98 667.928C1666.14 668.841 1664.79 667.677 1663.62 664.585C1665.53 663.323 1667.09 664.387 1667.98 667.928Z" fill="#10C771"/>
<path d="M1630.38 579.942C1629.47 578.419 1630.41 576.323 1632.88 573.355C1633.69 574.779 1632.96 577.074 1630.38 579.942Z" fill="#10C771"/>
<path d="M1635.49 570.398C1634.76 570.744 1635.66 568.146 1635.99 567.585C1636.33 567.023 1636.21 570.053 1635.49 570.398Z" fill="#10C771"/>
<path d="M1656.86 535.675C1656.34 534.53 1657.61 532.837 1660.97 530.996C1661.23 532.074 1659.76 533.501 1656.86 535.675Z" fill="#10C771"/>
<path d="M1664.79 530.308C1663.52 527.933 1664.9 526.118 1668.61 524.254C1669.08 525.894 1667.9 528.115 1664.79 530.308Z" fill="#10C771"/>
<path d="M1686.36 503.895C1685.58 502.439 1686.57 500.024 1689.31 496.629C1690.08 498.078 1689.11 500.508 1686.36 503.895Z" fill="#10C771"/>
<path d="M420.91 331.542C419.516 332.556 417.236 331.902 413.894 329.769C415.23 328.818 417.627 329.347 420.91 331.542Z" fill="#0BC46A"/>
<path d="M4386.12 821.064C4322.68 890.941 4240.19 918.396 4143.74 910.599C4140.13 910.307 4136.48 908.766 4132.28 906.51C4131.75 906.221 4131.19 905.916 4130.63 905.6C4188.4 913.241 4246.5 909.711 4300.15 875.946C4328.64 858.016 4356.47 839.426 4386.12 821.064ZM4132.78 333.213C4280.69 313.301 4410.3 386.005 4455.56 520.871C4484.12 605.989 4476.32 691.278 4426.5 772.98C4425.89 773.611 4425.34 774.205 4424.86 774.766L4423.95 775.802L4424.34 777.119C4424.35 777.137 4424.4 777.435 4424.11 778.176C4423.97 778.527 4423.77 778.93 4423.5 779.389L4421.96 778.686C4421.68 779.165 4421.44 779.62 4421.23 780.051C4420.51 779.876 4419.67 779.822 4418.75 780.028L4417.86 780.228L4417.3 780.955C4410.33 790.127 4405.02 798.923 4399.88 807.589C4399.18 807.459 4398.36 807.436 4397.43 807.622L4396.98 807.712L4396.59 807.957C4379.42 818.74 4362.81 829.54 4346.41 840.21C4332.06 849.549 4317.88 858.786 4303.61 867.839L4297.49 871.707C4241.08 907.207 4179.44 908.58 4115.72 897.397L4115.45 897.349L4115.17 897.362C4042.16 900.903 3989.74 860.459 3954.81 804.869V804.868C3917.05 744.789 3891.4 676.779 3863.39 610.54C3830.27 532.25 3800.41 452.613 3769.32 373.372C3768.45 371.16 3767.98 368.723 3767.43 365.032C3766.97 361.947 3766.46 358.037 3765.61 352.898C3811.67 352.825 3854.4 351.094 3896.85 354.178C3901.57 354.521 3906.96 357.928 3912.37 363.118C3917.68 368.217 3922.61 374.643 3926.42 380.241C3934.06 391.49 3937.3 405.884 3940.6 423.468C3933.27 427.593 3926.55 430.521 3920.05 432.86C3916.92 433.884 3914.16 434.773 3912.13 435.42C3911.03 435.771 3910.14 436.051 3909.53 436.243C3909.23 436.339 3908.99 436.414 3908.83 436.464C3908.75 436.489 3908.69 436.508 3908.65 436.521C3908.63 436.527 3908.62 436.531 3908.61 436.534L3908.59 436.539H3908.59L3910.03 441.326C3913.88 440.21 3917.73 439.006 3921.68 437.588C3921.93 437.507 3922.18 437.428 3922.43 437.346C3929.27 435.1 3937.68 432.256 3944 429.854C3948.54 429.245 3951.33 429.958 3958.11 431.813L3958.15 431.824L3958.19 431.834C3965.78 433.647 3970.81 434.738 3975.41 435.713C3975.42 435.714 3975.43 435.716 3975.43 435.718V435.717C3975.44 435.718 3975.44 435.72 3975.45 435.721L3975.76 434.279C3976.01 434.62 3976.27 434.961 3976.52 435.305L3977.05 436.024L3977.92 436.242L3984.7 437.936L3980.55 432.331C3977.22 427.846 3973.9 423.36 3970.58 418.875C4010.62 372.121 4061.53 344.52 4124.38 333.729C4134.36 342.232 4142.1 350.506 4152.68 361.834L4153.43 362.627H4160.28L4156.34 358.42C4146.94 348.364 4139.72 340.63 4132.78 333.213ZM4318.14 568.1C4292.81 501.612 4223.8 464.969 4148.15 478.938C4043.18 498.325 3996.72 615.901 4053.11 700.948C4085.69 750.101 4133.59 760.582 4185.85 774.66L4185.91 774.506C4186.14 774.604 4186.36 774.698 4186.55 774.775C4186.75 774.85 4187.01 774.946 4187.26 775.012C4187.37 775.039 4187.63 775.102 4187.95 775.108C4188.1 775.112 4188.43 775.107 4188.82 774.981C4189.22 774.849 4189.9 774.504 4190.3 773.699C4190.69 772.917 4190.56 772.195 4190.45 771.836C4190.37 771.554 4190.24 771.336 4190.16 771.196C4198.87 768.328 4208.7 766.459 4220.35 764.652C4220.48 765.09 4220.76 765.731 4221.38 766.232C4222.17 766.874 4223.1 766.958 4223.83 766.795C4224.45 766.655 4224.91 766.346 4225.18 766.143C4225.38 765.989 4225.57 765.822 4225.73 765.66C4226.11 765.695 4226.44 765.645 4226.69 765.578C4227.08 765.469 4227.38 765.291 4227.56 765.171C4228.17 764.762 4228.73 764.075 4229.21 763.433C4229.69 762.79 4230.29 761.923 4231.02 760.785C4237.8 756.986 4245.02 753.292 4251.75 749.029C4315.32 708.76 4343.05 633.511 4318.14 568.1ZM4005.24 607.128L4007.73 607.394L4010.21 607.659C4010.29 606.974 4010.36 606.295 4010.43 605.618L4007.95 605.337L4005.47 605.057C4005.39 605.75 4005.31 606.442 4005.24 607.128ZM4006.68 595.592C4006.44 597.263 4006.21 598.937 4006 600.613L4008.48 600.929L4010.96 601.243C4011.17 599.594 4011.39 597.948 4011.63 596.306L4009.15 595.949L4006.68 595.592ZM4057.3 482.821C4057.22 483.358 4057.12 483.895 4057.02 484.433L4059.48 484.891L4061.94 485.349C4062.04 484.778 4062.15 484.201 4062.24 483.618L4057.3 482.821ZM4058.02 476.863C4057.97 477.433 4057.92 478.001 4057.86 478.566L4060.35 478.821L4062.84 479.076C4062.9 478.472 4062.95 477.868 4063 477.267L4060.51 477.064L4058.02 476.863ZM4044 397.405L4041.59 398.062C4047.11 418.332 4055.12 438.66 4057.69 459.859L4057.8 460.869C4057.92 461.858 4058.01 462.883 4058.08 463.942L4063.07 463.587C4062.99 462.476 4062.89 461.378 4062.77 460.305C4060.45 439.624 4052.85 419.303 4047.46 400.49C4047.28 399.863 4047.1 399.238 4046.93 398.614L4046.41 396.749L4044 397.405ZM3965.89 422.974C3968.34 425.113 3970.42 427.426 3972.37 429.856C3969.71 429.165 3966.99 428.302 3964.06 427.059C3964.2 426.148 3964.43 425.417 3964.75 424.755C3965.02 424.178 3965.39 423.604 3965.89 422.974Z" fill="#121833" stroke="#FFFCFC" stroke-width="5"/>
<path d="M3124.79 379.971C3121.64 379.158 3119.7 377.17 3117.92 375.054C3117.87 374.999 3119.47 373.56 3120.29 372.766C3122.21 374.77 3124.12 376.775 3124.79 379.971Z" fill="#0F142D"/>
<mask id="path-42-inside-2_7819_5137" fill="white">
<path d="M3414.96 314.152C3535.98 290.571 3702.81 354.164 3761.07 534.184C3791.47 628.114 3824.82 721.097 3857.38 814.315C3864.21 833.855 3873.03 852.742 3881.69 871.586C3891.15 892.19 3886.1 902.667 3862.48 902.475C3832.27 902.229 3801.75 899.554 3771.94 902.981C3733.69 907.379 3716.31 890.564 3710.74 855.425C3709.3 846.306 3706.58 837.389 3706.38 825.958C3722.86 835.993 3737.41 848.448 3748.48 857.927C3765.1 855.57 3780.33 853.496 3795.53 851.225C3807.7 849.405 3821.95 850.459 3831.18 844.201C3834.36 842.049 3835.52 835.512 3835.52 828.547C3835.52 835.51 3834.35 842.045 3831.18 844.197C3821.95 850.454 3807.7 849.401 3795.53 851.22C3780.33 853.491 3765.1 855.565 3748.48 857.922C3737.41 848.444 3722.86 835.988 3705.72 823.391C3697.75 823.196 3692.36 823.143 3684.26 823.516C3673.88 822.206 3666.06 818.505 3658.61 819.141C3642.81 820.488 3627.21 824.095 3606.47 827.642C3585.63 879.961 3439.51 917.129 3372.52 875.93C3372.52 875.93 3372.52 875.93 3372.52 875.93C3439.5 917.136 3585.63 879.968 3606.47 827.647C3627.21 824.1 3642.82 820.493 3658.61 819.146C3666.06 818.51 3673.88 822.211 3681.53 823.947C3648.78 872.712 3598.21 893.666 3542.21 910.461C3540.09 909.968 3538.55 909.798 3537.41 909.908C3538.03 909.915 3538.81 910.115 3539.72 910.516C3539.51 911.95 3538.56 912.634 3535.93 912.878C3535.5 911.384 3535.74 910.433 3536.52 910.072C3535.3 910.424 3534.68 911.242 3534.24 912.437C3374.9 952.147 3222 865.24 3177.08 706.339C3185.27 713.614 3191.76 721.99 3199.73 733.085C3191.76 721.93 3185.25 713.231 3176.98 704.199C3170.87 659.337 3167.41 614.974 3164.94 567.906C3174.12 562.463 3182.89 560.773 3190.38 556.733C3200.82 551.105 3210.45 543.927 3220.15 537.013C3227.13 532.036 3233.43 526.107 3240.42 521.148C3248.56 515.37 3259.74 503.915 3264.94 506.087C3274.4 510.035 3287.86 522.171 3288.18 529.792C3287.87 522.171 3274.4 510.026 3264.94 506.075C3259.74 503.903 3248.56 515.358 3240.42 521.136C3233.43 526.095 3227.13 532.024 3220.15 537.001C3210.45 543.915 3200.82 551.094 3190.38 556.721C3182.89 560.761 3174.12 562.451 3165.93 565.189C3181.47 438.646 3281.55 340.146 3414.96 314.152ZM3310.98 795.73C3343.65 849.346 3414.99 833.453 3452.47 879.587C3452.47 879.587 3452.47 879.588 3452.47 879.588C3414.99 833.448 3343.65 849.343 3310.98 795.729L3310.98 795.73ZM3281.08 834.1C3281.09 834.101 3281.09 834.103 3281.09 834.105C3283.41 830.105 3285.74 826.106 3288.06 822.107C3303.03 829.16 3321.59 832.875 3332.05 844.123C3344.52 857.536 3337.93 867.132 3316.87 861.218C3317.24 861.486 3317.62 861.756 3318.01 862.027C3337.68 867.47 3344.75 857.768 3332.05 844.109C3321.59 832.86 3303.03 829.145 3288.06 822.091C3285.73 826.094 3283.41 830.097 3281.08 834.1ZM3342.77 750.061C3347.9 762.407 3352.35 773.092 3356.8 783.778H3356.8C3352.35 773.092 3347.91 762.405 3342.77 750.059L3342.77 750.061ZM3499.76 432.94C3475.48 431.284 3451.49 431.111 3447.58 466.06C3428.49 472.193 3410.57 474.924 3395.7 483.148C3305.85 532.815 3272.51 657.271 3365.01 733.524C3357.05 739.092 3350.63 743.983 3345.45 747.99C3350.68 743.992 3357.41 739.169 3367.37 734.048C3401.47 744.785 3430.38 762.391 3460.85 765.757C3525.77 772.926 3566.39 729.972 3605.21 684.517C3605.22 684.517 3605.22 684.518 3605.22 684.519C3623.31 615.891 3619.72 553.586 3561.74 501.149C3567.11 495.951 3577.08 488.13 3579.62 490.067C3621.76 522.099 3647.17 561.606 3650.08 608.293C3647.18 561.599 3621.76 522.087 3579.62 490.051C3577.08 488.114 3567.11 495.935 3558.44 498.247C3550.09 492.578 3543.89 487.872 3537.7 483.165C3539.08 482.076 3540.27 480.776 3541.29 479.298C3539.54 480.608 3537.78 481.909 3536 483.196C3531.45 481.557 3528.59 479.893 3526.09 475.109C3526.09 475.112 3526.09 475.117 3526.09 475.12C3502.54 474.347 3479.34 470.451 3453.15 465.883C3451.49 431.125 3475.48 431.299 3499.76 432.954C3519.88 434.327 3527.03 445.096 3527.12 462.122C3527.04 445.088 3519.88 434.312 3499.76 432.94ZM3257.68 657.725C3257.99 663.284 3260.82 667.988 3268.01 671.831C3286.5 681.713 3293.37 693.443 3293.52 706.751C3293.37 693.438 3286.51 681.703 3268.01 671.819C3260.82 667.975 3257.99 663.273 3257.68 657.713V657.725ZM3650.23 611.312C3650.22 611.044 3650.21 610.777 3650.2 610.51C3650.21 610.777 3650.22 611.044 3650.23 611.312ZM3650.27 612.312C3650.26 611.978 3650.25 611.645 3650.23 611.312C3650.25 611.645 3650.26 611.978 3650.27 612.312Z"/>
</mask>
<path d="M3414.96 314.152C3535.98 290.571 3702.81 354.164 3761.07 534.184C3791.47 628.114 3824.82 721.097 3857.38 814.315C3864.21 833.855 3873.03 852.742 3881.69 871.586C3891.15 892.19 3886.1 902.667 3862.48 902.475C3832.27 902.229 3801.75 899.554 3771.94 902.981C3733.69 907.379 3716.31 890.564 3710.74 855.425C3709.3 846.306 3706.58 837.389 3706.38 825.958C3722.86 835.993 3737.41 848.448 3748.48 857.927C3765.1 855.57 3780.33 853.496 3795.53 851.225C3807.7 849.405 3821.95 850.459 3831.18 844.201C3834.36 842.049 3835.52 835.512 3835.52 828.547C3835.52 835.51 3834.35 842.045 3831.18 844.197C3821.95 850.454 3807.7 849.401 3795.53 851.22C3780.33 853.491 3765.1 855.565 3748.48 857.922C3737.41 848.444 3722.86 835.988 3705.72 823.391C3697.75 823.196 3692.36 823.143 3684.26 823.516C3673.88 822.206 3666.06 818.505 3658.61 819.141C3642.81 820.488 3627.21 824.095 3606.47 827.642C3585.63 879.961 3439.51 917.129 3372.52 875.93C3372.52 875.93 3372.52 875.93 3372.52 875.93C3439.5 917.136 3585.63 879.968 3606.47 827.647C3627.21 824.1 3642.82 820.493 3658.61 819.146C3666.06 818.51 3673.88 822.211 3681.53 823.947C3648.78 872.712 3598.21 893.666 3542.21 910.461C3540.09 909.968 3538.55 909.798 3537.41 909.908C3538.03 909.915 3538.81 910.115 3539.72 910.516C3539.51 911.95 3538.56 912.634 3535.93 912.878C3535.5 911.384 3535.74 910.433 3536.52 910.072C3535.3 910.424 3534.68 911.242 3534.24 912.437C3374.9 952.147 3222 865.24 3177.08 706.339C3185.27 713.614 3191.76 721.99 3199.73 733.085C3191.76 721.93 3185.25 713.231 3176.98 704.199C3170.87 659.337 3167.41 614.974 3164.94 567.906C3174.12 562.463 3182.89 560.773 3190.38 556.733C3200.82 551.105 3210.45 543.927 3220.15 537.013C3227.13 532.036 3233.43 526.107 3240.42 521.148C3248.56 515.37 3259.74 503.915 3264.94 506.087C3274.4 510.035 3287.86 522.171 3288.18 529.792C3287.87 522.171 3274.4 510.026 3264.94 506.075C3259.74 503.903 3248.56 515.358 3240.42 521.136C3233.43 526.095 3227.13 532.024 3220.15 537.001C3210.45 543.915 3200.82 551.094 3190.38 556.721C3182.89 560.761 3174.12 562.451 3165.93 565.189C3181.47 438.646 3281.55 340.146 3414.96 314.152ZM3310.98 795.73C3343.65 849.346 3414.99 833.453 3452.47 879.587C3452.47 879.587 3452.47 879.588 3452.47 879.588C3414.99 833.448 3343.65 849.343 3310.98 795.729L3310.98 795.73ZM3281.08 834.1C3281.09 834.101 3281.09 834.103 3281.09 834.105C3283.41 830.105 3285.74 826.106 3288.06 822.107C3303.03 829.16 3321.59 832.875 3332.05 844.123C3344.52 857.536 3337.93 867.132 3316.87 861.218C3317.24 861.486 3317.62 861.756 3318.01 862.027C3337.68 867.47 3344.75 857.768 3332.05 844.109C3321.59 832.86 3303.03 829.145 3288.06 822.091C3285.73 826.094 3283.41 830.097 3281.08 834.1ZM3342.77 750.061C3347.9 762.407 3352.35 773.092 3356.8 783.778H3356.8C3352.35 773.092 3347.91 762.405 3342.77 750.059L3342.77 750.061ZM3499.76 432.94C3475.48 431.284 3451.49 431.111 3447.58 466.06C3428.49 472.193 3410.57 474.924 3395.7 483.148C3305.85 532.815 3272.51 657.271 3365.01 733.524C3357.05 739.092 3350.63 743.983 3345.45 747.99C3350.68 743.992 3357.41 739.169 3367.37 734.048C3401.47 744.785 3430.38 762.391 3460.85 765.757C3525.77 772.926 3566.39 729.972 3605.21 684.517C3605.22 684.517 3605.22 684.518 3605.22 684.519C3623.31 615.891 3619.72 553.586 3561.74 501.149C3567.11 495.951 3577.08 488.13 3579.62 490.067C3621.76 522.099 3647.17 561.606 3650.08 608.293C3647.18 561.599 3621.76 522.087 3579.62 490.051C3577.08 488.114 3567.11 495.935 3558.44 498.247C3550.09 492.578 3543.89 487.872 3537.7 483.165C3539.08 482.076 3540.27 480.776 3541.29 479.298C3539.54 480.608 3537.78 481.909 3536 483.196C3531.45 481.557 3528.59 479.893 3526.09 475.109C3526.09 475.112 3526.09 475.117 3526.09 475.12C3502.54 474.347 3479.34 470.451 3453.15 465.883C3451.49 431.125 3475.48 431.299 3499.76 432.954C3519.88 434.327 3527.03 445.096 3527.12 462.122C3527.04 445.088 3519.88 434.312 3499.76 432.94ZM3257.68 657.725C3257.99 663.284 3260.82 667.988 3268.01 671.831C3286.5 681.713 3293.37 693.443 3293.52 706.751C3293.37 693.438 3286.51 681.703 3268.01 671.819C3260.82 667.975 3257.99 663.273 3257.68 657.713V657.725ZM3650.23 611.312C3650.22 611.044 3650.21 610.777 3650.2 610.51C3650.21 610.777 3650.22 611.044 3650.23 611.312ZM3650.27 612.312C3650.26 611.978 3650.25 611.645 3650.23 611.312C3650.25 611.645 3650.26 611.978 3650.27 612.312Z" fill="#0F142D"/>
<path d="M3414.96 314.152L3415.92 319.059L3415.92 319.059L3414.96 314.152ZM3761.07 534.184L3765.83 532.644L3765.83 532.644L3761.07 534.184ZM3857.38 814.315L3862.1 812.666L3862.1 812.666L3857.38 814.315ZM3881.69 871.586L3886.23 869.5L3886.23 869.5L3881.69 871.586ZM3862.48 902.475L3862.44 907.475L3862.44 907.475L3862.48 902.475ZM3771.94 902.981L3771.37 898.013L3771.37 898.013L3771.94 902.981ZM3710.74 855.425L3715.68 854.642L3715.68 854.642L3710.74 855.425ZM3706.38 825.958L3708.98 821.687L3701.22 816.964L3701.38 826.046L3706.38 825.958ZM3748.48 857.927L3745.23 861.725L3746.94 863.195L3749.18 862.877L3748.48 857.927ZM3795.53 851.225L3796.27 856.17L3796.27 856.17L3795.53 851.225ZM3831.18 844.201L3833.98 848.34L3833.99 848.34L3831.18 844.201ZM3835.52 828.547L3840.52 828.551L3830.52 828.543L3835.52 828.547ZM3831.18 844.197L3833.98 848.335L3833.98 848.335L3831.18 844.197ZM3795.53 851.22L3796.27 856.165L3796.27 856.165L3795.53 851.22ZM3748.48 857.922L3745.23 861.72L3746.94 863.19L3749.18 862.873L3748.48 857.922ZM3705.72 823.391L3708.68 819.362L3707.42 818.431L3705.84 818.392L3705.72 823.391ZM3684.26 823.516L3683.63 828.476L3684.06 828.53L3684.49 828.511L3684.26 823.516ZM3658.61 819.141L3658.18 814.159L3658.18 814.159L3658.61 819.141ZM3606.47 827.642L3605.63 822.713L3602.86 823.186L3601.82 825.792L3606.47 827.642ZM3372.52 875.93L3375.14 871.671L3374.04 870.994L3372.75 870.935L3372.52 875.93ZM3372.52 875.93L3372.74 870.935L3353.41 870.05L3369.9 880.189L3372.52 875.93ZM3606.47 827.647L3605.63 822.718L3602.86 823.191L3601.82 825.797L3606.47 827.647ZM3658.61 819.146L3658.19 814.164L3658.19 814.164L3658.61 819.146ZM3681.53 823.947L3685.68 826.734L3689.75 820.683L3682.64 819.07L3681.53 823.947ZM3542.21 910.461L3541.08 915.332L3542.38 915.632L3543.65 915.25L3542.21 910.461ZM3537.41 909.908L3536.93 904.932L3537.35 914.908L3537.41 909.908ZM3539.72 910.516L3544.67 911.262L3545.24 907.482L3541.74 905.94L3539.72 910.516ZM3535.93 912.878L3531.13 914.282L3532.29 918.238L3536.4 917.857L3535.93 912.878ZM3536.52 910.072L3538.62 914.611L3535.13 905.268L3536.52 910.072ZM3534.24 912.437L3535.45 917.288L3538.02 916.648L3538.94 914.161L3534.24 912.437ZM3177.08 706.339L3180.4 702.602L3167.62 691.239L3172.27 707.699L3177.08 706.339ZM3199.73 733.085L3195.67 736.002L3203.8 730.178L3199.73 733.085ZM3176.98 704.199L3172.02 704.874L3172.24 706.423L3173.29 707.576L3176.98 704.199ZM3164.94 567.906L3162.39 563.605L3159.78 565.147L3159.94 568.169L3164.94 567.906ZM3190.38 556.733L3192.75 561.134L3192.75 561.134L3190.38 556.733ZM3220.15 537.013L3223.05 541.084L3223.05 541.084L3220.15 537.013ZM3240.42 521.148L3237.52 517.07L3237.52 517.07L3240.42 521.148ZM3264.94 506.087L3266.87 501.473L3266.87 501.473L3264.94 506.087ZM3288.18 529.792L3283.19 530.005L3293.18 529.588L3288.18 529.792ZM3264.94 506.075L3266.87 501.462L3266.87 501.462L3264.94 506.075ZM3240.42 521.136L3237.52 517.058L3237.52 517.058L3240.42 521.136ZM3220.15 537.001L3223.05 541.072L3223.05 541.072L3220.15 537.001ZM3190.38 556.721L3192.75 561.122L3192.75 561.122L3190.38 556.721ZM3165.93 565.189L3160.96 564.579L3160 572.44L3167.51 569.931L3165.93 565.189ZM3310.98 795.73L3308.74 791.258L3303.88 793.689L3306.71 798.331L3310.98 795.73ZM3452.47 879.587L3448.58 882.74L3450 884.479L3452.24 884.582L3452.47 879.587ZM3452.47 879.588L3452.24 884.583L3463.38 885.093L3456.35 876.436L3452.47 879.588ZM3310.98 795.729L3315.25 793.127L3312.86 789.2L3308.74 791.257L3310.98 795.729ZM3281.08 834.1L3276.76 831.588L3274.59 835.33L3277.98 838.018L3281.08 834.1ZM3281.09 834.105L3277.98 838.023L3282.51 841.612L3285.41 836.616L3281.09 834.105ZM3288.06 822.107L3290.19 817.584L3286.04 815.628L3283.74 819.595L3288.06 822.107ZM3332.05 844.123L3328.39 847.528L3328.39 847.528L3332.05 844.123ZM3316.87 861.218L3318.22 856.404L3313.98 865.298L3316.87 861.218ZM3318.01 862.027L3315.13 866.112L3315.84 866.614L3316.67 866.845L3318.01 862.027ZM3332.05 844.109L3328.39 847.513L3328.39 847.513L3332.05 844.109ZM3288.06 822.091L3290.19 817.568L3286.04 815.613L3283.74 819.579L3288.06 822.091ZM3342.77 750.061L3338.3 747.825L3337.27 749.87L3338.15 751.981L3342.77 750.061ZM3356.8 783.778L3352.18 785.698L3353.46 788.778H3356.8V783.778ZM3356.8 783.778V788.778H3364.29L3361.41 781.857L3356.8 783.778ZM3342.77 750.059L3347.39 748.138L3343.19 738.044L3338.3 747.823L3342.77 750.059ZM3499.76 432.94L3500.1 427.951L3500.1 427.951L3499.76 432.94ZM3447.58 466.06L3449.11 470.82L3452.19 469.831L3452.55 466.616L3447.58 466.06ZM3395.7 483.148L3393.28 478.772L3393.28 478.772L3395.7 483.148ZM3365.01 733.524L3367.88 737.621L3373.27 733.85L3368.2 729.666L3365.01 733.524ZM3345.45 747.99L3342.39 744.034L3348.48 751.964L3345.45 747.99ZM3367.37 734.048L3368.87 729.279L3366.91 728.662L3365.08 729.602L3367.37 734.048ZM3460.85 765.757L3460.3 770.727L3460.3 770.727L3460.85 765.757ZM3605.21 684.517L3607.7 680.179L3604.1 678.117L3601.41 681.269L3605.21 684.517ZM3605.22 684.519L3602.73 688.857L3608.39 692.101L3610.05 685.793L3605.22 684.519ZM3561.74 501.149L3558.26 497.555L3554.42 501.272L3558.38 504.857L3561.74 501.149ZM3579.62 490.067L3582.65 486.086L3582.65 486.086L3579.62 490.067ZM3650.08 608.293L3645.09 608.604L3655.07 607.983L3650.08 608.293ZM3579.62 490.051L3576.6 494.031L3576.6 494.031L3579.62 490.051ZM3558.44 498.247L3555.64 502.384L3557.53 503.667L3559.73 503.078L3558.44 498.247ZM3537.7 483.165L3534.61 479.23L3529.51 483.228L3534.67 487.147L3537.7 483.165ZM3541.29 479.298L3545.41 482.136L3538.29 475.298L3541.29 479.298ZM3536 483.196L3534.3 487.9L3536.79 488.793L3538.92 487.251L3536 483.196ZM3526.09 475.109L3530.52 472.79L3523.38 459.153L3521.14 474.381L3526.09 475.109ZM3526.09 475.12L3525.92 480.118L3530.38 480.264L3531.03 475.848L3526.09 475.12ZM3453.15 465.883L3448.16 466.121L3448.35 470.121L3452.29 470.809L3453.15 465.883ZM3499.76 432.954L3500.1 427.966L3500.1 427.966L3499.76 432.954ZM3527.12 462.122L3522.12 462.148L3532.12 462.098L3527.12 462.122ZM3257.68 657.725H3252.68V657.866L3252.69 658.006L3257.68 657.725ZM3268.01 671.831L3265.65 676.241L3265.65 676.241L3268.01 671.831ZM3293.52 706.751L3288.52 706.809L3298.52 706.695L3293.52 706.751ZM3268.01 671.819L3265.65 676.228L3265.65 676.228L3268.01 671.819ZM3257.68 657.713L3262.67 657.432L3252.68 657.713H3257.68ZM3650.2 610.51L3655.2 610.277L3645.21 610.743L3650.2 610.51ZM3650.27 612.312L3645.28 612.483L3655.27 612.141L3650.27 612.312ZM3414.96 314.152L3415.92 319.059C3534.7 295.914 3698.91 358.339 3756.32 535.723L3761.07 534.184L3765.83 532.644C3706.72 349.988 3537.26 285.227 3414 309.244L3414.96 314.152ZM3761.07 534.184L3756.32 535.723C3786.74 629.726 3820.12 722.798 3852.66 815.964L3857.38 814.315L3862.1 812.666C3829.52 719.395 3796.2 626.502 3765.83 532.644L3761.07 534.184ZM3857.38 814.315L3852.66 815.964C3859.58 835.774 3868.52 854.896 3877.14 873.673L3881.69 871.586L3886.23 869.5C3877.55 850.588 3868.84 831.936 3862.1 812.666L3857.38 814.315ZM3881.69 871.586L3877.14 873.672C3879.39 878.572 3880.64 882.574 3881.04 885.756C3881.43 888.912 3880.97 890.945 3880.17 892.3C3878.63 894.927 3874.13 897.569 3862.52 897.475L3862.48 902.475L3862.44 907.475C3874.45 907.572 3884.28 905.072 3888.8 897.358C3891.04 893.542 3891.54 889.106 3890.96 884.507C3890.38 879.937 3888.71 874.903 3886.23 869.5L3881.69 871.586ZM3862.48 902.475L3862.52 897.475C3832.86 897.234 3801.58 894.54 3771.37 898.013L3771.94 902.981L3772.51 907.948C3801.92 904.567 3831.69 907.225 3862.44 907.475L3862.48 902.475ZM3771.94 902.981L3771.37 898.013C3752.98 900.127 3740.64 897.031 3732.25 890.161C3723.79 883.23 3718.38 871.659 3715.68 854.642L3710.74 855.425L3705.81 856.208C3708.68 874.33 3714.73 888.736 3725.92 897.897C3737.17 907.12 3752.64 910.232 3772.51 907.948L3771.94 902.981ZM3710.74 855.425L3715.68 854.642C3714.11 844.698 3711.57 836.866 3711.38 825.871L3706.38 825.958L3701.38 826.046C3701.59 837.911 3704.49 847.913 3705.81 856.208L3710.74 855.425ZM3706.38 825.958L3703.78 830.229C3719.87 840.024 3734.13 852.22 3745.23 861.725L3748.48 857.927L3751.73 854.129C3740.69 844.677 3725.86 831.963 3708.98 821.687L3706.38 825.958ZM3748.48 857.927L3749.18 862.877C3765.76 860.526 3781.04 858.445 3796.27 856.17L3795.53 851.225L3794.79 846.28C3779.61 848.547 3764.43 850.614 3747.78 852.977L3748.48 857.927ZM3795.53 851.225L3796.27 856.17C3799.13 855.743 3802.15 855.479 3805.34 855.224C3808.47 854.973 3811.81 854.73 3815.05 854.342C3821.46 853.575 3828.34 852.169 3833.98 848.34L3831.18 844.201L3828.37 840.063C3824.79 842.491 3819.93 843.688 3813.86 844.413C3810.87 844.771 3807.79 844.997 3804.54 845.256C3801.35 845.511 3798.02 845.797 3794.79 846.28L3795.53 851.225ZM3831.18 844.201L3833.99 848.34C3837.16 846.189 3838.63 842.464 3839.39 839.382C3840.21 836.073 3840.52 832.258 3840.52 828.551L3835.52 828.547L3830.52 828.543C3830.52 831.801 3830.24 834.736 3829.69 836.975C3829.41 838.088 3829.1 838.898 3828.8 839.443C3828.5 839.995 3828.32 840.102 3828.37 840.063L3831.18 844.201ZM3835.52 828.547L3830.52 828.543C3830.52 831.799 3830.24 834.734 3829.69 836.972C3829.41 838.084 3829.1 838.893 3828.8 839.438C3828.5 839.99 3828.32 840.096 3828.37 840.058L3831.18 844.197L3833.98 848.335C3837.16 846.185 3838.63 842.462 3839.39 839.38C3840.21 836.072 3840.52 832.258 3840.52 828.551L3835.52 828.547ZM3831.18 844.197L3828.37 840.058C3824.79 842.486 3819.92 843.683 3813.86 844.408C3810.87 844.766 3807.79 844.992 3804.54 845.251C3801.35 845.506 3798.02 845.792 3794.79 846.275L3795.53 851.22L3796.27 856.165C3799.13 855.738 3802.15 855.474 3805.34 855.219C3808.47 854.969 3811.81 854.725 3815.05 854.337C3821.46 853.57 3828.34 852.164 3833.98 848.335L3831.18 844.197ZM3795.53 851.22L3794.79 846.275C3779.61 848.542 3764.43 850.609 3747.78 852.972L3748.48 857.922L3749.18 862.873C3765.76 860.521 3781.04 858.44 3796.27 856.165L3795.53 851.22ZM3748.48 857.922L3751.73 854.124C3740.66 844.648 3725.99 832.082 3708.68 819.362L3705.72 823.391L3702.76 827.42C3719.73 839.894 3734.15 852.239 3745.23 861.72L3748.48 857.922ZM3705.72 823.391L3705.84 818.392C3697.81 818.196 3692.3 818.141 3684.03 818.521L3684.26 823.516L3684.49 828.511C3692.43 828.145 3697.68 828.196 3705.6 828.389L3705.72 823.391ZM3684.26 823.516L3684.88 818.555C3680.05 817.945 3675.87 816.792 3671.51 815.738C3667.33 814.729 3662.8 813.765 3658.18 814.159L3658.61 819.141L3659.03 824.123C3661.87 823.881 3664.98 824.45 3669.16 825.459C3673.16 826.425 3678.09 827.777 3683.63 828.476L3684.26 823.516ZM3658.61 819.141L3658.18 814.159C3642.11 815.53 3625.99 819.232 3605.63 822.713L3606.47 827.642L3607.31 832.57C3628.44 828.959 3643.52 825.446 3659.03 824.123L3658.61 819.141ZM3606.47 827.642L3601.82 825.792C3597.23 837.329 3585.34 848.741 3568.05 858.722C3550.89 868.618 3529.07 876.723 3505.7 881.977C3458.67 892.553 3406.98 891.253 3375.14 871.671L3372.52 875.93L3369.9 880.189C3405.05 901.806 3459.92 902.521 3507.9 891.733C3532.04 886.306 3554.84 877.884 3573.04 867.384C3591.1 856.968 3605.29 844.114 3611.11 829.492L3606.47 827.642ZM3372.52 875.93L3372.75 870.935C3372.69 870.932 3372.64 870.931 3372.6 870.93C3372.56 870.93 3372.52 870.93 3372.49 870.93C3372.47 870.93 3372.44 870.93 3372.43 870.931C3372.42 870.931 3372.42 870.931 3372.41 870.931C3372.41 870.931 3372.41 870.931 3372.41 870.931C3372.41 870.931 3372.41 870.931 3372.41 870.931C3372.41 870.931 3372.41 870.931 3372.41 870.931C3372.41 870.931 3372.41 870.931 3372.41 870.931C3372.42 870.931 3372.42 870.931 3372.43 870.931C3372.44 870.931 3372.46 870.93 3372.49 870.93C3372.52 870.93 3372.55 870.93 3372.59 870.931C3372.64 870.931 3372.69 870.932 3372.74 870.935L3372.52 875.93L3372.29 880.925C3372.35 880.927 3372.4 880.929 3372.44 880.929C3372.48 880.93 3372.52 880.93 3372.55 880.93C3372.57 880.93 3372.6 880.929 3372.61 880.929C3372.62 880.929 3372.62 880.929 3372.62 880.929C3372.63 880.929 3372.63 880.929 3372.63 880.929C3372.63 880.929 3372.63 880.929 3372.63 880.929C3372.63 880.929 3372.63 880.929 3372.63 880.929C3372.63 880.929 3372.63 880.929 3372.63 880.929C3372.62 880.929 3372.62 880.929 3372.61 880.929C3372.6 880.929 3372.58 880.93 3372.55 880.93C3372.52 880.93 3372.49 880.93 3372.44 880.929C3372.4 880.929 3372.35 880.927 3372.29 880.925L3372.52 875.93ZM3372.52 875.93L3369.9 880.189C3405.04 901.81 3459.91 902.527 3507.89 891.74C3532.03 886.312 3554.84 877.89 3573.04 867.39C3591.1 856.974 3605.29 844.12 3611.11 829.497L3606.47 827.647L3601.82 825.797C3597.23 837.335 3585.34 848.747 3568.04 858.728C3550.89 868.624 3529.07 876.729 3505.7 881.983C3458.66 892.559 3406.97 891.257 3375.14 871.671L3372.52 875.93ZM3606.47 827.647L3607.31 832.575C3628.44 828.964 3643.52 825.451 3659.04 824.128L3658.61 819.146L3658.19 814.164C3642.12 815.534 3625.99 819.237 3605.63 822.718L3606.47 827.647ZM3658.61 819.146L3659.04 824.128C3661.85 823.888 3664.97 824.454 3668.66 825.476C3671.98 826.394 3676.52 827.937 3680.43 828.823L3681.53 823.947L3682.64 819.07C3678.89 818.22 3675.69 817.045 3671.33 815.838C3667.34 814.735 3662.82 813.768 3658.19 814.164L3658.61 819.146ZM3681.53 823.947L3677.38 821.159C3645.67 868.376 3596.62 888.924 3540.78 905.672L3542.21 910.461L3543.65 915.25C3599.81 898.408 3651.89 877.049 3685.68 826.734L3681.53 823.947ZM3542.21 910.461L3543.34 905.591C3541.05 905.059 3538.88 904.742 3536.93 904.932L3537.41 909.908L3537.89 914.885C3538.22 914.853 3539.13 914.878 3541.08 915.332L3542.21 910.461ZM3537.41 909.908L3537.35 914.908C3537.17 914.906 3537.11 914.879 3537.2 914.902C3537.28 914.924 3537.45 914.977 3537.71 915.091L3539.72 910.516L3541.74 905.94C3540.5 905.394 3539.02 904.926 3537.46 904.909L3537.41 909.908ZM3539.72 910.516L3534.78 909.769C3534.8 909.661 3534.86 909.321 3535.11 908.906C3535.37 908.462 3535.72 908.14 3536.03 907.939C3536.3 907.765 3536.45 907.741 3536.34 907.771C3536.23 907.8 3535.96 907.854 3535.47 907.9L3535.93 912.878L3536.4 917.857C3537.91 917.716 3539.8 917.402 3541.44 916.347C3543.47 915.04 3544.39 913.104 3544.67 911.262L3539.72 910.516ZM3535.93 912.878L3540.73 911.474C3540.64 911.15 3540.8 911.462 3540.65 912.134C3540.57 912.512 3540.38 913.011 3540 913.508C3539.61 914.016 3539.12 914.382 3538.62 914.611L3536.52 910.072L3534.43 905.532C3532.48 906.43 3531.3 908.127 3530.89 909.966C3530.53 911.578 3530.79 913.112 3531.13 914.282L3535.93 912.878ZM3536.52 910.072L3535.13 905.268C3533.69 905.687 3532.41 906.455 3531.4 907.569C3530.44 908.619 3529.89 909.775 3529.55 910.712L3534.24 912.437L3538.94 914.161C3539.03 913.904 3539.02 914.053 3538.79 914.307C3538.66 914.443 3538.51 914.575 3538.33 914.686C3538.15 914.794 3538 914.85 3537.91 914.875L3536.52 910.072ZM3534.24 912.437L3533.03 907.585C3376.27 946.652 3226.06 861.244 3181.89 704.979L3177.08 706.339L3172.27 707.699C3217.93 869.236 3373.52 957.643 3535.45 917.288L3534.24 912.437ZM3177.08 706.339L3173.76 710.076C3181.5 716.957 3187.73 724.943 3195.67 736.002L3199.73 733.085L3203.79 730.169C3195.8 719.038 3189.03 710.271 3180.4 702.602L3177.08 706.339ZM3199.73 733.085L3203.8 730.178C3195.8 718.982 3189.15 710.083 3180.67 700.823L3176.98 704.199L3173.29 707.576C3181.35 716.379 3187.72 724.879 3195.66 735.992L3199.73 733.085ZM3176.98 704.199L3181.93 703.525C3175.85 658.848 3172.4 614.635 3169.93 567.644L3164.94 567.906L3159.94 568.169C3162.42 615.314 3165.89 659.825 3172.02 704.874L3176.98 704.199ZM3164.94 567.906L3167.48 572.208C3171.68 569.722 3175.82 568.063 3180.05 566.473C3184.17 564.927 3188.63 563.356 3192.75 561.134L3190.38 556.733L3188.01 552.332C3184.63 554.15 3180.97 555.444 3176.53 557.113C3172.21 558.739 3167.38 560.648 3162.39 563.605L3164.94 567.906ZM3190.38 556.733L3192.75 561.134C3203.54 555.319 3213.49 547.902 3223.05 541.084L3220.15 537.013L3217.25 532.942C3207.42 539.952 3198.1 546.892 3188.01 552.332L3190.38 556.733ZM3220.15 537.013L3223.05 541.084C3226.7 538.48 3230.15 535.644 3233.45 532.94C3236.79 530.198 3239.98 527.588 3243.31 525.225L3240.42 521.148L3237.52 517.07C3233.86 519.667 3230.41 522.501 3227.11 525.208C3223.76 527.952 3220.57 530.569 3217.25 532.942L3220.15 537.013ZM3240.42 521.148L3243.31 525.225C3245.5 523.669 3247.86 521.764 3250.11 519.929C3252.42 518.049 3254.64 516.226 3256.76 514.65C3258.92 513.051 3260.71 511.903 3262.11 511.271C3263.73 510.544 3263.72 510.995 3263.02 510.701L3264.94 506.087L3266.87 501.473C3263.56 500.093 3260.21 501.161 3258.01 502.152C3255.6 503.237 3253.11 504.906 3250.8 506.622C3248.46 508.361 3246.04 510.349 3243.79 512.175C3241.5 514.044 3239.4 515.737 3237.52 517.07L3240.42 521.148ZM3264.94 506.087L3263.02 510.701C3267.01 512.371 3272.23 515.976 3276.49 520.139C3278.6 522.197 3280.34 524.26 3281.53 526.126C3282.79 528.085 3283.16 529.383 3283.19 530.005L3288.18 529.792L3293.18 529.579C3293.04 526.39 3291.61 523.314 3289.95 520.731C3288.24 518.054 3285.96 515.408 3283.48 512.985C3278.57 508.188 3272.32 503.751 3266.87 501.473L3264.94 506.087ZM3288.18 529.792L3293.18 529.588C3293.05 526.396 3291.61 523.316 3289.96 520.731C3288.25 518.053 3285.97 515.405 3283.49 512.981C3278.57 508.181 3272.33 503.741 3266.87 501.462L3264.94 506.075L3263.02 510.689C3267.02 512.36 3272.23 515.968 3276.5 520.134C3278.6 522.192 3280.34 524.257 3281.54 526.122C3282.79 528.082 3283.16 529.378 3283.18 529.996L3288.18 529.792ZM3264.94 506.075L3266.87 501.462C3263.56 500.081 3260.21 501.149 3258.01 502.141C3255.6 503.226 3253.11 504.895 3250.8 506.61C3248.46 508.349 3246.04 510.337 3243.79 512.163C3241.5 514.032 3239.4 515.726 3237.52 517.058L3240.42 521.136L3243.31 525.214C3245.5 523.658 3247.86 521.752 3250.11 519.917C3252.42 518.037 3254.64 516.214 3256.76 514.639C3258.92 513.04 3260.71 511.891 3262.11 511.259C3263.73 510.533 3263.72 510.983 3263.02 510.689L3264.94 506.075ZM3240.42 521.136L3237.52 517.058C3233.86 519.655 3230.41 522.489 3227.11 525.196C3223.76 527.941 3220.57 530.557 3217.25 532.931L3220.15 537.001L3223.05 541.072C3226.7 538.469 3230.15 535.632 3233.45 532.928C3236.79 530.187 3239.98 527.576 3243.31 525.214L3240.42 521.136ZM3220.15 537.001L3217.25 532.931C3207.42 539.941 3198.1 546.88 3188.01 552.32L3190.38 556.721L3192.75 561.122C3203.54 555.307 3213.49 547.89 3223.05 541.072L3220.15 537.001ZM3190.38 556.721L3188.01 552.32C3184.7 554.105 3181 555.424 3176.95 556.662C3173.12 557.834 3168.47 559.068 3164.34 560.446L3165.93 565.189L3167.51 569.931C3171.58 568.572 3175.41 567.592 3179.88 566.225C3184.13 564.924 3188.57 563.377 3192.75 561.122L3190.38 556.721ZM3165.93 565.189L3170.89 565.798C3186.13 441.68 3284.35 344.695 3415.92 319.059L3414.96 314.152L3414 309.244C3278.76 335.597 3176.8 435.612 3160.96 564.579L3165.93 565.189ZM3310.98 795.73L3306.71 798.331C3324.11 826.885 3351.84 836.748 3378.4 845.227C3405.43 853.859 3430.97 861.059 3448.58 882.74L3452.47 879.587L3456.35 876.434C3436.48 851.981 3407.62 844.061 3381.44 835.701C3354.79 827.19 3330.52 818.191 3315.25 793.128L3310.98 795.73ZM3452.47 879.587L3452.24 884.582C3452.11 884.576 3451.99 884.566 3451.88 884.553C3451.78 884.54 3451.67 884.525 3451.58 884.509C3451.49 884.492 3451.41 884.475 3451.34 884.458C3451.26 884.44 3451.19 884.423 3451.14 884.407C3451.08 884.392 3451.03 884.376 3450.99 884.364C3450.95 884.351 3450.91 884.339 3450.88 884.33C3450.86 884.321 3450.83 884.313 3450.82 884.309C3450.81 884.306 3450.81 884.305 3450.81 884.303C3450.8 884.302 3450.8 884.302 3450.8 884.302C3450.8 884.302 3450.8 884.302 3450.8 884.302C3450.8 884.302 3450.8 884.302 3450.8 884.302C3450.8 884.302 3450.8 884.302 3450.8 884.302C3450.8 884.302 3450.8 884.302 3450.8 884.302C3450.8 884.302 3450.8 884.303 3450.81 884.304C3450.81 884.305 3450.82 884.307 3450.82 884.309C3450.84 884.314 3450.86 884.321 3450.88 884.33C3450.91 884.339 3450.95 884.351 3450.99 884.364C3451.03 884.377 3451.08 884.392 3451.14 884.408C3451.2 884.424 3451.26 884.441 3451.34 884.458C3451.41 884.476 3451.5 884.493 3451.59 884.509C3451.68 884.526 3451.78 884.541 3451.89 884.554C3452 884.567 3452.11 884.577 3452.24 884.583L3452.47 879.588L3452.7 874.593C3452.82 874.599 3452.94 874.609 3453.05 874.622C3453.16 874.635 3453.26 874.65 3453.35 874.667C3453.44 874.683 3453.53 874.701 3453.6 874.718C3453.67 874.735 3453.74 874.752 3453.8 874.768C3453.86 874.784 3453.91 874.799 3453.95 874.812C3453.99 874.825 3454.03 874.836 3454.05 874.845C3454.08 874.854 3454.1 874.862 3454.11 874.866C3454.12 874.869 3454.13 874.871 3454.13 874.872C3454.13 874.873 3454.13 874.874 3454.13 874.874C3454.13 874.874 3454.13 874.874 3454.13 874.874C3454.13 874.874 3454.13 874.874 3454.13 874.873C3454.13 874.873 3454.13 874.873 3454.13 874.873C3454.13 874.873 3454.13 874.873 3454.13 874.873C3454.13 874.873 3454.13 874.872 3454.13 874.872C3454.13 874.871 3454.12 874.869 3454.11 874.866C3454.1 874.862 3454.08 874.854 3454.05 874.845C3454.02 874.836 3453.99 874.824 3453.95 874.811C3453.9 874.798 3453.85 874.783 3453.8 874.767C3453.74 874.751 3453.67 874.734 3453.6 874.717C3453.52 874.7 3453.44 874.682 3453.35 874.666C3453.26 874.649 3453.16 874.634 3453.05 874.621C3452.94 874.608 3452.82 874.598 3452.69 874.592L3452.47 879.587ZM3452.47 879.588L3456.35 876.436C3436.49 851.979 3407.62 844.058 3381.44 835.698C3354.79 827.186 3330.52 818.188 3315.25 793.127L3310.98 795.729L3306.71 798.331C3324.11 826.883 3351.85 836.745 3378.4 845.224C3405.43 853.855 3430.98 861.057 3448.59 882.74L3452.47 879.588ZM3310.98 795.729L3308.74 791.257L3308.74 791.258L3310.98 795.73L3313.21 800.202L3313.22 800.201L3310.98 795.729ZM3281.08 834.1L3277.98 838.018C3277.95 837.999 3277.93 837.982 3277.92 837.968C3277.9 837.954 3277.88 837.942 3277.87 837.932C3277.86 837.923 3277.85 837.915 3277.85 837.911C3277.84 837.909 3277.84 837.907 3277.84 837.906C3277.84 837.905 3277.84 837.904 3277.84 837.904C3277.84 837.904 3277.84 837.904 3277.84 837.905C3277.84 837.905 3277.84 837.906 3277.84 837.906C3277.84 837.908 3277.85 837.91 3277.85 837.912C3277.85 837.917 3277.86 837.925 3277.88 837.935C3277.89 837.945 3277.9 837.957 3277.92 837.972C3277.94 837.987 3277.96 838.004 3277.98 838.023L3281.09 834.105L3284.2 830.187C3284.22 830.205 3284.24 830.222 3284.26 830.236C3284.28 830.25 3284.29 830.263 3284.3 830.272C3284.31 830.282 3284.32 830.289 3284.33 830.294C3284.33 830.296 3284.33 830.298 3284.33 830.299C3284.33 830.3 3284.33 830.301 3284.33 830.3C3284.33 830.3 3284.33 830.3 3284.33 830.3C3284.33 830.299 3284.33 830.299 3284.33 830.298C3284.33 830.297 3284.33 830.295 3284.32 830.292C3284.32 830.287 3284.31 830.279 3284.3 830.27C3284.29 830.26 3284.27 830.247 3284.25 830.233C3284.24 830.218 3284.21 830.201 3284.19 830.182L3281.08 834.1ZM3281.09 834.105L3285.41 836.616C3287.73 832.633 3290.07 828.602 3292.38 824.618L3288.06 822.107L3283.74 819.595C3281.4 823.61 3279.1 827.578 3276.77 831.593L3281.09 834.105ZM3288.06 822.107L3285.93 826.63C3289.86 828.482 3293.98 830.094 3298.01 831.617C3302.09 833.162 3306.02 834.594 3309.85 836.166C3317.52 839.323 3323.93 842.731 3328.39 847.528L3332.05 844.123L3335.71 840.719C3329.71 834.268 3321.61 830.194 3313.65 826.918C3309.65 825.273 3305.48 823.751 3301.55 822.264C3297.56 820.755 3293.75 819.258 3290.19 817.584L3288.06 822.107ZM3332.05 844.123L3328.39 847.528C3331.21 850.565 3332.6 853.025 3333.11 854.719C3333.59 856.321 3333.18 856.73 3333.16 856.757C3332.99 856.959 3332.14 857.726 3329.47 857.945C3326.87 858.158 3323.13 857.784 3318.22 856.404L3316.87 861.218L3315.52 866.032C3321.13 867.609 3326.12 868.253 3330.29 867.911C3334.38 867.575 3338.35 866.213 3340.91 863.079C3343.61 859.77 3343.82 855.635 3342.69 851.85C3341.58 848.157 3339.12 844.388 3335.71 840.719L3332.05 844.123ZM3316.87 861.218L3313.98 865.298C3314.34 865.552 3314.74 865.84 3315.13 866.112L3318.01 862.027L3320.89 857.941C3320.51 857.672 3320.15 857.419 3319.76 857.138L3316.87 861.218ZM3318.01 862.027L3316.67 866.845C3321.98 868.315 3326.78 868.863 3330.84 868.414C3334.85 867.97 3338.69 866.466 3341.14 863.268C3343.69 859.938 3343.91 855.837 3342.77 852.013C3341.66 848.272 3339.19 844.447 3335.71 840.704L3332.05 844.109L3328.39 847.513C3331.26 850.6 3332.67 853.11 3333.19 854.86C3333.68 856.526 3333.29 857.072 3333.19 857.195C3333 857.449 3332.19 858.203 3329.74 858.474C3327.33 858.741 3323.87 858.46 3319.34 857.208L3318.01 862.027ZM3332.05 844.109L3335.71 840.704C3329.71 834.253 3321.61 830.179 3313.65 826.903C3309.65 825.258 3305.48 823.736 3301.55 822.248C3297.56 820.74 3293.75 819.242 3290.19 817.568L3288.06 822.091L3285.93 826.614C3289.86 828.466 3293.98 830.079 3298.01 831.602C3302.09 833.147 3306.02 834.579 3309.85 836.151C3317.52 839.308 3323.93 842.716 3328.39 847.513L3332.05 844.109ZM3288.06 822.091L3283.74 819.579C3281.3 823.766 3279.19 827.401 3276.76 831.588L3281.08 834.1L3285.41 836.612C3287.63 832.792 3290.17 828.422 3292.38 824.603L3288.06 822.091ZM3342.77 750.061L3338.15 751.981C3343.29 764.328 3347.73 775.013 3352.18 785.698L3356.8 783.778L3361.41 781.857C3356.97 771.172 3352.52 760.486 3347.38 748.14L3342.77 750.061ZM3356.8 783.778V788.778H3356.8V783.778V778.778H3356.8V783.778ZM3356.8 783.778L3361.41 781.857C3356.97 771.171 3352.52 760.485 3347.39 748.138L3342.77 750.059L3338.15 751.979C3343.29 764.326 3347.74 775.012 3352.18 785.698L3356.8 783.778ZM3342.77 750.059L3338.3 747.823L3338.3 747.825L3342.77 750.061L3347.24 752.297L3347.24 752.295L3342.77 750.059ZM3499.76 432.94L3500.1 427.951C3488.16 427.138 3474.86 426.506 3464.05 431.184C3458.46 433.601 3453.54 437.417 3449.78 443.176C3446.06 448.876 3443.65 456.225 3442.61 465.503L3447.58 466.06L3452.55 466.616C3453.47 458.42 3455.52 452.685 3458.16 448.64C3460.76 444.654 3464.08 442.064 3468.02 440.362C3476.24 436.803 3487.07 437.086 3499.42 437.928L3499.76 432.94ZM3447.58 466.06L3446.05 461.299C3436.59 464.339 3427.7 466.451 3418.69 469.01C3409.87 471.515 3401.23 474.378 3393.28 478.772L3395.7 483.148L3398.12 487.524C3405.04 483.695 3412.8 481.079 3421.42 478.63C3429.86 476.234 3439.48 473.913 3449.11 470.82L3447.58 466.06ZM3395.7 483.148L3393.28 478.772C3347.07 504.314 3315.31 549.118 3307.05 597.524C3298.75 646.105 3314.17 698.09 3361.83 737.382L3365.01 733.524L3368.2 729.666C3323.36 692.705 3309.2 644.335 3316.9 599.208C3324.64 553.906 3354.47 511.649 3398.12 487.524L3395.7 483.148ZM3365.01 733.524L3362.15 729.427C3354.1 735.06 3347.6 740.006 3342.39 744.034L3345.45 747.99L3348.5 751.947C3353.66 747.96 3360.01 743.123 3367.88 737.621L3365.01 733.524ZM3345.45 747.99L3348.48 751.964C3353.58 748.073 3360.05 743.435 3369.65 738.494L3367.37 734.048L3365.08 729.602C3354.77 734.903 3347.79 739.911 3342.41 744.017L3345.45 747.99ZM3367.37 734.048L3365.86 738.817C3382.67 744.107 3398.07 751.044 3413.6 757.304C3428.96 763.494 3444.34 768.964 3460.3 770.727L3460.85 765.757L3461.4 760.787C3446.89 759.184 3432.58 754.168 3417.34 748.029C3402.28 741.96 3386.17 734.725 3368.87 729.279L3367.37 734.048ZM3460.85 765.757L3460.3 770.727C3528.14 778.218 3570.37 733.011 3609.02 687.764L3605.21 684.517L3601.41 681.269C3562.41 726.933 3523.41 767.634 3461.4 760.787L3460.85 765.757ZM3605.21 684.517L3602.73 688.854C3602.76 688.873 3602.79 688.89 3602.82 688.906C3602.85 688.921 3602.87 688.934 3602.89 688.947C3602.92 688.959 3602.94 688.969 3602.96 688.979C3602.98 688.988 3602.99 688.997 3603.01 689.004C3603.02 689.011 3603.04 689.018 3603.05 689.023C3603.06 689.028 3603.07 689.032 3603.07 689.036C3603.08 689.039 3603.09 689.042 3603.09 689.043C3603.09 689.044 3603.09 689.045 3603.09 689.045C3603.09 689.046 3603.09 689.046 3603.1 689.046C3603.1 689.046 3603.1 689.046 3603.1 689.046C3603.1 689.046 3603.1 689.046 3603.1 689.046C3603.1 689.046 3603.09 689.045 3603.09 689.044C3603.09 689.042 3603.08 689.04 3603.07 689.036C3603.07 689.033 3603.06 689.029 3603.05 689.024C3603.04 689.018 3603.02 689.012 3603.01 689.005C3603 688.998 3602.98 688.99 3602.96 688.98C3602.94 688.971 3602.92 688.96 3602.9 688.948C3602.88 688.936 3602.85 688.922 3602.82 688.907C3602.79 688.892 3602.76 688.875 3602.73 688.857L3605.22 684.519L3607.7 680.181C3607.67 680.162 3607.64 680.145 3607.61 680.13C3607.59 680.115 3607.56 680.101 3607.54 680.089C3607.51 680.077 3607.49 680.066 3607.47 680.057C3607.45 680.047 3607.44 680.039 3607.42 680.031C3607.41 680.024 3607.4 680.018 3607.38 680.013C3607.37 680.008 3607.36 680.003 3607.36 680C3607.35 679.996 3607.34 679.994 3607.34 679.992C3607.34 679.991 3607.34 679.991 3607.34 679.99C3607.34 679.99 3607.34 679.99 3607.34 679.99C3607.34 679.99 3607.34 679.99 3607.34 679.99C3607.34 679.99 3607.34 679.99 3607.34 679.99C3607.34 679.989 3607.34 679.991 3607.34 679.992C3607.34 679.993 3607.35 679.996 3607.36 679.999C3607.36 680.003 3607.37 680.007 3607.38 680.012C3607.39 680.017 3607.41 680.023 3607.42 680.031C3607.44 680.038 3607.45 680.046 3607.47 680.055C3607.49 680.065 3607.51 680.076 3607.53 680.088C3607.56 680.1 3607.58 680.113 3607.61 680.128C3607.64 680.143 3607.67 680.16 3607.7 680.179L3605.21 684.517ZM3605.22 684.519L3610.05 685.793C3619.2 651.086 3622.99 617.54 3616.92 585.821C3610.82 553.984 3594.84 524.345 3565.09 497.44L3561.74 501.149L3558.38 504.857C3586.62 530.39 3601.43 558.122 3607.09 587.703C3612.79 617.403 3609.33 649.324 3600.38 683.244L3605.22 684.519ZM3561.74 501.149L3565.21 504.742C3567.74 502.296 3571.35 499.237 3574.55 497.07C3576.17 495.967 3577.47 495.246 3578.34 494.903C3578.79 494.728 3578.88 494.748 3578.71 494.76C3578.55 494.772 3577.6 494.812 3576.6 494.048L3579.62 490.067L3582.65 486.086C3581.01 484.837 3579.19 484.698 3577.98 484.787C3576.75 484.877 3575.61 485.231 3574.68 485.598C3572.8 486.339 3570.79 487.535 3568.93 488.795C3565.16 491.354 3561.1 494.803 3558.26 497.555L3561.74 501.149ZM3579.62 490.067L3576.6 494.047C3617.91 525.457 3642.3 563.743 3645.09 608.604L3650.08 608.293L3655.07 607.983C3652.05 559.469 3625.6 518.741 3582.65 486.086L3579.62 490.067ZM3650.08 608.293L3655.07 607.983C3652.06 559.462 3625.61 518.73 3582.65 486.071L3579.62 490.051L3576.6 494.031C3617.92 525.445 3642.3 563.736 3645.09 608.603L3650.08 608.293ZM3579.62 490.051L3582.65 486.071C3581.01 484.823 3579.2 484.689 3578.03 484.762C3576.84 484.835 3575.72 485.152 3574.82 485.467C3573 486.098 3570.94 487.131 3569.04 488.109C3564.91 490.235 3560.84 492.434 3557.15 493.416L3558.44 498.247L3559.73 503.078C3564.72 501.748 3569.96 498.881 3573.61 497.002C3575.61 495.978 3577.06 495.275 3578.1 494.912C3578.62 494.73 3578.77 494.735 3578.65 494.743C3578.54 494.749 3577.6 494.795 3576.6 494.031L3579.62 490.051ZM3558.44 498.247L3561.25 494.11C3553.02 488.522 3546.91 483.887 3540.72 479.183L3537.7 483.165L3534.67 487.147C3540.87 491.857 3547.16 496.634 3555.64 502.384L3558.44 498.247ZM3537.7 483.165L3540.78 487.101C3542.61 485.667 3544.13 483.982 3545.41 482.136L3541.29 479.298L3537.17 476.461C3536.41 477.569 3535.56 478.486 3534.61 479.23L3537.7 483.165ZM3541.29 479.298L3538.29 475.298C3536.56 476.593 3534.83 477.876 3533.07 479.14L3536 483.196L3538.92 487.251C3540.74 485.942 3542.53 484.622 3544.29 483.298L3541.29 479.298ZM3536 483.196L3537.69 478.491C3535.57 477.726 3534.29 477.107 3533.31 476.358C3532.4 475.663 3531.5 474.664 3530.52 472.79L3526.09 475.109L3521.66 477.427C3523.18 480.338 3524.96 482.563 3527.24 484.305C3529.45 485.994 3531.88 487.027 3534.3 487.9L3536 483.196ZM3526.09 475.109L3521.14 474.381C3521.13 474.462 3521.12 474.532 3521.12 474.59C3521.11 474.648 3521.11 474.697 3521.1 474.734C3521.1 474.753 3521.1 474.769 3521.1 474.783C3521.1 474.797 3521.1 474.809 3521.1 474.819C3521.1 474.828 3521.1 474.835 3521.1 474.84C3521.1 474.842 3521.1 474.844 3521.1 474.845C3521.1 474.846 3521.1 474.847 3521.1 474.847C3521.1 474.847 3521.1 474.847 3521.1 474.847C3521.1 474.848 3521.1 474.845 3521.1 474.841C3521.1 474.837 3521.1 474.83 3521.1 474.822C3521.1 474.813 3521.1 474.801 3521.1 474.788C3521.1 474.774 3521.1 474.758 3521.1 474.74C3521.11 474.703 3521.11 474.655 3521.12 474.598C3521.12 474.542 3521.13 474.472 3521.14 474.392L3526.09 475.12L3531.03 475.848C3531.05 475.768 3531.05 475.697 3531.06 475.639C3531.07 475.582 3531.07 475.532 3531.07 475.495C3531.08 475.476 3531.08 475.46 3531.08 475.446C3531.08 475.432 3531.08 475.42 3531.08 475.41C3531.08 475.401 3531.08 475.394 3531.08 475.389C3531.08 475.387 3531.08 475.385 3531.08 475.384C3531.08 475.383 3531.08 475.382 3531.08 475.382C3531.08 475.382 3531.08 475.382 3531.08 475.381C3531.08 475.381 3531.08 475.384 3531.08 475.388C3531.08 475.392 3531.08 475.399 3531.08 475.407C3531.08 475.416 3531.08 475.428 3531.08 475.441C3531.08 475.455 3531.08 475.471 3531.07 475.489C3531.07 475.525 3531.07 475.573 3531.06 475.63C3531.06 475.687 3531.05 475.757 3531.04 475.836L3526.09 475.109ZM3526.09 475.12L3526.25 470.123C3503.1 469.363 3480.24 465.532 3454.01 460.957L3453.15 465.883L3452.29 470.809C3478.44 475.37 3501.97 479.331 3525.92 480.118L3526.09 475.12ZM3453.15 465.883L3458.15 465.645C3457.76 457.483 3458.9 451.898 3460.8 448.057C3462.65 444.326 3465.36 441.912 3468.83 440.299C3472.43 438.63 3476.94 437.784 3482.26 437.506C3487.57 437.229 3493.35 437.529 3499.42 437.943L3499.76 432.954L3500.1 427.966C3494.02 427.551 3487.7 427.209 3481.74 427.52C3475.79 427.83 3469.85 428.803 3464.62 431.228C3459.28 433.709 3454.78 437.666 3451.84 443.627C3448.95 449.477 3447.72 456.904 3448.16 466.121L3453.15 465.883ZM3499.76 432.954L3499.42 437.943C3508.66 438.573 3514.01 441.286 3517.17 444.938C3520.39 448.664 3522.08 454.236 3522.12 462.148L3527.12 462.122L3532.12 462.097C3532.07 452.983 3530.14 444.656 3524.73 438.398C3519.26 432.065 3510.97 428.708 3500.1 427.966L3499.76 432.954ZM3527.12 462.122L3532.12 462.098C3532.08 452.98 3530.15 444.65 3524.74 438.389C3519.26 432.053 3510.98 428.693 3500.1 427.951L3499.76 432.94L3499.42 437.928C3508.66 438.558 3514.01 441.273 3517.17 444.926C3520.39 448.655 3522.08 454.23 3522.12 462.147L3527.12 462.122ZM3257.68 657.725L3252.69 658.006C3252.89 661.6 3253.93 665.086 3256.17 668.287C3258.37 671.444 3261.56 674.054 3265.65 676.241L3268.01 671.831L3270.37 667.421C3267.27 665.765 3265.44 664.102 3264.36 662.556C3263.31 661.054 3262.78 659.409 3262.67 657.444L3257.68 657.725ZM3268.01 671.831L3265.65 676.241C3274.42 680.927 3280.06 685.856 3283.54 690.857C3286.96 695.796 3288.46 701.063 3288.52 706.809L3293.52 706.751L3298.52 706.693C3298.44 699.131 3296.42 691.879 3291.75 685.155C3287.13 678.494 3280.09 672.617 3270.37 667.421L3268.01 671.831ZM3293.52 706.751L3298.52 706.695C3298.44 699.13 3296.42 691.875 3291.76 685.149C3287.13 678.485 3280.09 672.606 3270.37 667.409L3268.01 671.819L3265.65 676.228C3274.42 680.915 3280.07 685.846 3283.54 690.849C3286.97 695.79 3288.46 701.059 3288.52 706.807L3293.52 706.751ZM3268.01 671.819L3270.37 667.409C3267.27 665.752 3265.44 664.089 3264.36 662.543C3263.31 661.042 3262.78 659.397 3262.67 657.432L3257.68 657.713L3252.69 657.994C3252.89 661.589 3253.93 665.075 3256.17 668.275C3258.38 671.432 3261.56 674.041 3265.65 676.228L3268.01 671.819ZM3257.68 657.713H3252.68V657.725H3257.68H3262.68V657.713H3257.68ZM3650.23 611.312L3655.23 611.107C3655.22 610.87 3655.21 610.562 3655.2 610.277L3650.2 610.51L3645.21 610.743C3645.22 610.992 3645.23 611.219 3645.24 611.517L3650.23 611.312ZM3650.2 610.51L3645.21 610.743C3645.22 610.993 3645.23 611.217 3645.24 611.517L3650.23 611.312L3655.23 611.106C3655.22 610.872 3655.21 610.561 3655.2 610.277L3650.2 610.51ZM3650.27 612.312L3655.27 612.141C3655.26 611.784 3655.24 611.414 3655.23 611.107L3650.23 611.312L3645.24 611.517C3645.25 611.876 3645.27 612.172 3645.28 612.482L3650.27 612.312ZM3650.23 611.312L3645.24 611.517C3645.25 611.874 3645.27 612.172 3645.28 612.483L3650.27 612.312L3655.27 612.141C3655.26 611.784 3655.24 611.415 3655.23 611.106L3650.23 611.312Z" fill="white" mask="url(#path-42-inside-2_7819_5137)"/>
</svg>
