<svg width="4475" height="922" viewBox="0 0 4475 922" fill="none" xmlns="http://www.w3.org/2000/svg">
<path d="M1538.5 453.744C1562.89 412.853 1586.33 371.352 1612.3 331.497C1618.85 321.443 1633.39 310.564 1644.42 310.394C1747.78 308.796 1851.18 309.446 1959.58 309.446C1959.58 322.974 1959.6 335.245 1959.58 347.515C1959.41 433.603 1957.98 519.714 1959.51 605.772C1960.45 658.52 1973.82 706.987 2022.78 738.215C2128.88 805.882 2258.72 739.744 2262.55 613.155C2265.12 528.36 2260.67 443.354 2259.46 358.442C2259.23 342.3 2259.42 326.152 2259.42 307.773C2311.29 307.773 2362.02 307.773 2413.02 307.773C2414.23 309.3 2416.85 311.071 2416.85 312.847C2417.06 420.962 2422.92 529.467 2415.75 637.103C2404.31 808.832 2275.89 920.127 2100.34 920.39C1940.59 920.629 1815.39 804.646 1802.15 638.336C1796.08 562.017 1799.81 484.926 1798.72 408.191C1798.55 396.162 1796.37 384.162 1795.11 372.148C1791.42 370.757 1787.72 369.365 1784.03 367.973C1757.02 406.014 1730.02 444.054 1701.09 481.106C1696.05 459.287 1692.94 438.455 1689.12 412.884C1684.88 413.38 1670.8 410.897 1666.74 416.153C1632.66 460.324 1590.62 473.153 1538.5 453.744Z" fill="#10C771"/>
<path d="M936.544 307.961C1074.73 312.217 1174.3 373.035 1226.17 498.495C1242.4 537.74 1240.36 584.684 1245.72 628.221C1248.98 654.63 1238.66 663.49 1209.76 663.019C1078.35 660.882 946.886 661.888 815.444 661.898C809.931 661.898 804.419 663.234 798.679 663.978C823.572 751.351 944.947 794.597 1021.67 742.007C1050.9 721.968 1069.43 719.262 1088.89 751.47C1102.67 774.267 1118.93 795.705 1135.51 816.62C1150.04 834.945 1145.18 847.398 1128.04 860.043C1022.6 937.801 871.869 943.33 764.29 868.125C669.978 802.194 629.685 706.599 635.487 593.488C643.78 431.811 765.652 316.816 936.544 307.961ZM873.578 476.211C850.953 497.62 828.328 519.028 802.897 543.092C896.382 543.092 981.382 543.092 1068.48 543.092C1032.21 474.828 951.831 446.994 873.578 476.211Z" fill="#10C771"/>
<path d="M2758.9 900.263C2649.21 934.297 2552.51 901.778 2458.32 854.182C2442.26 846.068 2436.79 834.049 2449.06 817.466C2469.04 790.452 2487.35 762.107 2508.83 736.386C2513.09 731.283 2529.77 732.356 2538.48 735.977C2560.9 745.303 2581.04 763.117 2603.99 767.455C2634.9 773.297 2668.46 774.135 2699.16 768.204C2713.96 765.342 2732.72 743.139 2734.75 727.723C2736.14 717.234 2713.53 699.322 2698.19 691.978C2679.85 683.203 2657.13 684.136 2637.52 677.352C2598.21 663.748 2556.83 652.657 2521.51 631.734C2447.1 587.65 2435.25 455.133 2495.91 386.713C2579.38 292.558 2760.4 281.171 2856.4 364.037C2883.74 387.635 2883.76 397.171 2856.58 421.271C2850.49 426.673 2843.95 431.706 2838.6 437.777C2809.9 470.348 2782.42 489.616 2736.64 458.79C2717.05 445.599 2682.76 449.193 2656.42 453.319C2644.42 455.2 2629.88 475.836 2627.29 489.943C2625.69 498.705 2642.41 516.847 2654.29 520.919C2690.34 533.28 2727.71 542.562 2765.18 549.908C2836.2 563.829 2883.54 601.382 2897.9 674.691C2912.35 748.442 2893.17 811.267 2833.36 858.098C2811.8 874.976 2785.67 886.021 2758.9 900.263Z" fill="#10C771"/>
<path d="M226.677 482.394C172.862 522.539 151.739 576.359 153.559 643.005C155.902 728.806 154.129 814.72 154.129 901.863C101.556 901.863 53.4591 901.863 3.19271 901.863C2.0723 889.93 0.550316 881.082 0.517498 872.23C0.199042 786.168 -0.108767 700.104 0.0374109 614.041C0.3905 406.225 194.883 261.326 396.294 324.165C394.502 332.514 391.041 340.018 386.139 341.123C365.436 345.788 348.572 352.319 349.214 378.304C349.323 382.686 344.324 389.036 340.002 391.392C308.736 408.435 325.811 420.143 343.569 432.973C361.669 446.049 379.073 460.087 404.302 479.487C375.474 473.642 357.852 470.069 340.23 466.497C340.23 466.497 337.765 467.041 334.578 464.682C313.518 460.961 295.645 459.599 275.419 458.059C282.831 448.049 288.496 440.399 295.323 431.179C250.904 421.457 225.394 435.858 206.607 478.888C213.548 480.1 220.112 481.247 226.677 482.394Z" fill="#0BC46A"/>
<path d="M1537.97 453.755C1590.62 473.14 1632.66 460.311 1666.74 416.139C1670.8 410.884 1684.88 413.367 1689.12 412.871C1692.94 438.442 1696.05 459.273 1699.09 482.444C1697.42 487.87 1695.83 490.956 1690.9 495.818C1686.57 500.008 1685.58 502.423 1684.58 504.836C1681.04 510.537 1677.5 516.239 1670.46 523.383C1664.9 526.108 1663.52 527.923 1662.84 530.269C1662.84 530.269 1662.7 530.475 1661.09 531.042C1657.61 532.846 1656.34 534.539 1655.68 536.688C1650.64 545.712 1645.6 554.737 1638.11 565.952C1635.66 568.143 1634.76 570.74 1634.76 570.74C1634.76 570.74 1635.35 571.767 1633.35 572.996C1630.41 576.323 1629.47 578.419 1628.53 580.515C1627.87 581.759 1627.22 583.003 1622.79 586.049C1624.61 600.928 1630.21 614.006 1635.81 627.083C1635.81 627.083 1635.73 627.856 1635.66 629.901C1644.61 642.089 1653.63 652.231 1662.65 662.373C1662.65 662.373 1663.28 662.574 1663.61 664.236C1664.79 667.659 1666.14 668.823 1668 669.39C1668 669.39 1669.82 670.054 1669.88 672.813C1672.13 678.213 1674.32 680.855 1676.5 683.497C1676.5 683.497 1677.39 684.083 1677.59 685.792C1679.89 690.258 1681.98 693.014 1684.08 695.771C1690.78 704.158 1697.47 712.545 1705.22 725.458C1710.37 733.246 1714.45 736.507 1718.54 739.768C1718.54 739.768 1720.12 740.677 1719.78 744.333C1722.9 760.282 1726.36 772.575 1729.82 784.868C1727.61 786.158 1725.4 787.449 1723.19 788.74C1694.9 755.824 1666.61 722.908 1635.63 686.867C1615.85 711.926 1600.17 731.788 1584.71 751.372C1559.98 741.109 1540.34 703.025 1509.1 739.418C1504.18 750.304 1499.26 761.191 1491.87 774.536C1489.39 776.994 1487.92 779.983 1487.92 779.983C1465.35 816.479 1443.64 853.556 1419.54 889.009C1414.31 896.707 1400.58 902.291 1390.63 902.512C1333.76 903.777 1276.84 903.126 1213.66 903.126C1220.81 890.671 1225.9 880.003 1232.58 870.446C1291.84 785.655 1351.01 700.795 1411.18 616.648C1422.32 601.069 1425.44 588.271 1411.03 569.244C1407.34 562.348 1404.59 559.861 1401.84 557.374C1401.84 557.374 1399.11 555.886 1398.44 551.973C1396.52 538.391 1395.27 528.723 1393.45 514.63C1412.68 517.291 1428.28 520.805 1443.97 521.206C1457.2 521.545 1474.61 522.963 1483 515.666C1503.4 497.941 1519.63 475.423 1537.54 454.835C1537.54 454.835 1537.44 453.779 1537.97 453.755Z" fill="#0BC46A"/>
<path d="M3136.35 898.644C3085.13 898.644 3034.71 898.644 2987.22 896.009C3035.1 893.373 3080.03 893.373 3125.42 893.373V837.696C3112.83 842.916 3104.61 847.106 3095.94 849.793C3038.01 867.729 3010.36 847.305 3010.35 786.885C3010.34 697.634 3010.45 608.382 3010.22 519.132C3010.19 507.884 3008.47 496.64 3007.53 485.395C3003.8 485.654 3000.07 485.915 2996.35 486.175C2996.35 525.03 2997.18 563.915 2995.81 602.721C2995.42 613.613 2988.53 624.276 2984.63 635.044C2984.12 546.403 2983.6 457.762 2986.41 366.752C2993.38 390.28 2997.04 416.177 3000.7 442.074C3009.13 431.517 3010.24 420.981 3010.26 410.442C3010.42 335.705 3011.17 260.953 3009.96 186.235C3009.45 155.029 3007.9 125.548 3044.2 112.06C3054.15 108.365 3067.29 97.0158 3072.39 100.088C3081.64 105.659 3090.68 119.048 3091.54 129.834C3096.46 191.242 3098.09 252.911 3102.89 314.331C3103.95 327.845 3113.31 340.71 3118.85 353.874C3122.16 352.737 3125.48 351.599 3128.79 350.462C3128.79 241.637 3129.22 132.804 3127.62 24.002C3127.53 18.0871 3110.92 8.40509 3101.26 7.35352C3064.61 3.36728 3027.65 2.21334 2990.8 0H3136.35V898.644ZM3120.29 372.757C3119.47 373.55 3117.88 374.988 3117.92 375.046C3119.7 377.161 3121.64 379.149 3126.03 378.771C3124.12 376.766 3122.21 374.761 3120.29 372.757Z" fill="#121833"/>
<path d="M341.739 467.945C357.852 470.056 375.474 473.629 404.302 479.473C379.073 460.074 361.668 446.036 343.569 432.96C325.811 420.129 308.735 408.422 340.002 391.378C344.323 389.022 349.322 382.673 349.214 378.29C348.571 352.306 365.436 345.775 386.138 341.11C391.041 340.005 394.501 332.501 398.729 325.398C402.556 323.744 406.278 324.633 412.478 328.379C417.236 331.891 419.516 332.544 421.795 333.198C421.795 333.198 421.026 332.889 421.118 335.44C432.492 341.43 443.773 344.871 455.054 348.311C455.054 348.311 454.748 348.755 455.865 350.279C460.621 353.077 464.262 354.352 467.903 355.628C467.903 355.628 468.684 355.44 469.104 358.134C475.955 363.772 482.386 366.716 488.817 369.66C488.817 369.66 489.684 369.478 490.584 371.583C497.59 377.668 503.697 381.649 509.803 385.629C594.352 459.056 621.771 553.899 614.638 662.28C612.585 693.471 613.619 724.865 609.422 758.473C597.809 758.788 588.504 753.013 582.459 755.42C546.195 769.862 543.397 743.028 539.253 720.608C532.975 686.642 529.693 652.133 523.939 618.057C517.437 579.557 469.832 529.839 436.105 526.718C437.702 534.845 439.193 542.429 440.683 550.014C408.205 523.145 375.727 496.276 341.739 467.945Z" fill="#10C771"/>
<path d="M1534.81 455.259C1519.63 475.412 1503.4 497.93 1483 515.655C1474.61 522.952 1457.2 521.535 1443.97 521.195C1428.28 520.794 1412.68 517.281 1393.45 514.619C1395.27 528.712 1396.52 538.38 1398.13 550.442C1342.47 473.552 1286.44 394.27 1225.76 308.413C1275.39 308.413 1316.86 312.204 1357.32 307.454C1407.88 301.52 1439.3 318.137 1463.09 363.656C1480.61 397.194 1508.69 425.215 1534.81 455.259Z" fill="#10C771"/>
<path d="M440.789 552.957C439.193 542.45 437.702 534.865 436.105 526.738C469.832 529.86 517.437 579.577 523.939 618.078C529.693 652.154 532.975 686.663 539.253 720.628C543.397 743.049 546.195 769.883 582.459 755.441C588.504 753.034 597.809 758.808 608.405 761.217C610.715 805.988 610.227 850.344 607.434 897.832C605.127 900.964 602.621 902.854 602.621 902.854C598.662 903.257 594.703 903.659 585.455 902.305C559.499 900.431 538.831 900.316 518.163 900.2C503.653 900.331 489.143 900.462 470.361 897.405C464.699 880.683 462.548 867.177 462.056 853.61C460.44 809.099 459.427 764.567 458.181 720.042C454.648 673.018 451.338 625.975 447.36 578.987C446.697 571.159 443.124 563.576 440.789 552.957Z" fill="#0BC46A"/>
<path d="M1511.72 739.635C1540.33 703.037 1559.98 741.121 1584.71 751.384C1600.17 731.8 1615.85 711.938 1635.63 686.879C1666.61 722.92 1694.9 755.836 1723.19 788.752C1725.4 787.461 1727.61 786.17 1729.82 784.88C1726.36 772.587 1722.9 760.294 1719.71 745.251C1754.55 793.804 1789.11 845.107 1826.9 901.208C1755.33 901.208 1692.15 902.025 1629.06 900.2C1620.96 899.966 1611.12 887.274 1605.74 878.191C1582.72 839.338 1561.65 799.329 1538.48 760.572C1533.31 751.937 1522.53 746.662 1511.72 739.635Z" fill="#10C771"/>
<path d="M2987.9 1.03516C3027.65 2.2244 3064.61 3.37849 3101.26 7.36472C3110.92 8.4161 3127.53 18.0984 3127.62 24.0133C3129.22 132.815 3128.79 241.647 3128.79 350.472C3125.48 351.61 3122.16 352.747 3118.85 353.885C3113.31 340.721 3103.95 327.856 3102.89 314.342C3098.09 252.922 3096.45 191.253 3091.54 129.845C3090.68 119.058 3081.64 105.671 3072.39 100.099C3067.29 97.0262 3054.15 108.375 3044.2 112.07C3007.9 125.558 3009.45 155.04 3009.96 186.246C3011.17 260.964 3010.42 335.716 3010.26 410.454C3010.24 420.992 3009.13 431.528 3000.7 442.085C2997.04 416.188 2993.38 390.29 2987.16 363.568C2984.09 355.266 2983.59 347.788 2986.41 336.732C2991.36 291.925 2993.18 250.7 2994.17 209.455C2994.23 207.097 2987.52 204.577 2983.96 202.132C2983.5 190.128 2983.03 178.125 2985.37 162.812C2992.5 142.95 3007.27 125.471 2983.93 111.366C2984.28 74.9305 2984.64 38.495 2987.9 1.03516Z" fill="#121833"/>
<path d="M2983.93 637.784C2988.53 624.276 2995.42 613.613 2995.81 602.72C2997.18 563.914 2996.35 525.029 2996.35 486.174C3000.07 485.914 3003.8 485.654 3007.53 485.395C3008.47 496.64 3010.19 507.883 3010.22 519.131C3010.44 608.382 3010.34 697.633 3010.35 786.885C3010.36 847.305 3038.01 867.729 3095.94 849.793C3104.61 847.106 3112.83 842.916 3125.42 837.696C3125.42 856.574 3125.42 872.582 3125.42 893.373C3080.03 893.373 3035.1 893.373 2986.98 893.384C2983.31 885.9 2982.83 878.405 2985.1 867.897C2986.64 860.422 2985.44 855.96 2984.24 851.498C2983.78 843.902 2983.33 836.306 2985.36 824.08C2998.68 792.522 3005.04 765.772 2984.66 740.097C2984.17 736.904 2983.67 733.712 2986.38 727.398C2987.94 703.835 2986.3 683.392 2984.65 662.948C2984.18 655.474 2983.71 647.999 2983.93 637.784Z" fill="#121833"/>
<path d="M229.254 481.937C220.112 481.252 213.548 480.105 206.606 478.893C225.394 435.863 250.903 421.462 295.323 431.184C288.496 440.404 282.83 448.054 275.419 458.063C295.644 459.604 313.517 460.966 333.539 463.97C301.069 470.9 266.45 476.189 229.254 481.937Z" fill="#10C771"/>
<path d="M2983.24 205.324C2987.52 204.569 2994.23 207.09 2994.17 209.448C2993.18 250.693 2991.36 291.918 2987.12 333.989C2983.86 292.728 2983.19 250.625 2983.24 205.324Z" fill="#121833"/>
<path d="M458.142 723.203C459.427 764.568 460.44 809.101 462.056 853.611C462.549 867.178 464.699 880.685 467.311 896.794C464.877 891.551 458.187 883.782 458.061 875.907C457.266 826.072 457.924 776.213 458.142 723.203Z" fill="#10C771"/>
<path d="M2983.91 743.219C3005.04 765.783 2998.68 792.533 2986.11 821.318C2983.96 797.559 2983.56 771.945 2983.91 743.219Z" fill="#121833"/>
<path d="M2983.9 666.031C2986.3 683.403 2987.94 703.845 2987.09 725.062C2984.11 706.924 2983.63 688.014 2983.9 666.031Z" fill="#121833"/>
<path d="M1635.36 624.411C1630.21 614.005 1624.61 600.928 1620.93 587.047C1626.87 598.076 1630.89 609.908 1635.36 624.411Z" fill="#10C771"/>
<path d="M520.667 901.147C538.831 900.316 559.499 900.432 582.614 901.258C564.431 902.01 543.801 902.052 520.667 901.147Z" fill="#10C771"/>
<path d="M1662.31 660.087C1653.63 652.226 1644.61 642.083 1635.86 629.562C1644.74 637.391 1653.36 647.598 1662.31 660.087Z" fill="#10C771"/>
<path d="M453.752 346.351C443.773 344.886 432.492 341.445 421.451 335.207C431.944 336.398 442.197 340.387 453.752 346.351Z" fill="#0BC46A"/>
<path d="M487.745 367.916C482.386 366.737 475.955 363.793 469.235 358.535C474.855 359.531 480.764 362.841 487.745 367.916Z" fill="#0BC46A"/>
<path d="M508.623 383.856C503.697 381.671 497.59 377.691 490.707 372.031C495.768 374.254 501.606 378.157 508.623 383.856Z" fill="#0BC46A"/>
<path d="M2983.49 853.766C2985.44 855.948 2986.64 860.41 2985.94 865.16C2983.6 862.314 2983.17 859.18 2983.49 853.766Z" fill="#121833"/>
<path d="M1684.27 694.387C1681.98 692.997 1679.89 690.241 1677.38 686.266C1679.47 687.705 1681.96 690.362 1684.27 694.387Z" fill="#10C771"/>
<path d="M1718.28 737.693C1714.45 736.502 1710.36 733.241 1705.49 728.164C1709.15 729.439 1713.58 732.531 1718.28 737.693Z" fill="#10C771"/>
<path d="M466.792 354.059C464.262 354.369 460.622 353.094 456.026 350.076C458.608 349.714 462.144 351.095 466.792 354.059Z" fill="#0BC46A"/>
<path d="M1676.82 681.637C1674.32 680.854 1672.13 678.213 1669.85 673.777C1672.21 674.582 1674.68 677.18 1676.82 681.637Z" fill="#10C771"/>
<path d="M1402.24 559.203C1404.59 559.876 1407.34 562.363 1410.23 566.801C1407.79 566.174 1405.21 563.596 1402.24 559.203Z" fill="#10C771"/>
<path d="M603.576 903.581C602.621 902.852 605.127 900.962 605.906 900.801C607.256 902.622 606.538 903.845 603.576 903.581Z" fill="#10C771"/>
<path d="M1488.92 779.732C1487.92 779.989 1489.39 777 1489.95 776.398C1491.45 777.205 1491.25 778.43 1488.92 779.732Z" fill="#10C771"/>
<path d="M1667.98 667.928C1666.14 668.841 1664.79 667.677 1663.62 664.585C1665.53 663.323 1667.09 664.387 1667.98 667.928Z" fill="#10C771"/>
<path d="M1630.38 579.942C1629.47 578.419 1630.41 576.323 1632.88 573.355C1633.69 574.779 1632.96 577.074 1630.38 579.942Z" fill="#10C771"/>
<path d="M1635.49 570.398C1634.76 570.744 1635.66 568.146 1635.99 567.585C1636.33 567.023 1636.21 570.053 1635.49 570.398Z" fill="#10C771"/>
<path d="M1656.86 535.675C1656.34 534.53 1657.61 532.837 1660.97 530.996C1661.23 532.074 1659.76 533.501 1656.86 535.675Z" fill="#10C771"/>
<path d="M1664.79 530.308C1663.52 527.933 1664.9 526.118 1668.61 524.254C1669.08 525.894 1667.9 528.115 1664.79 530.308Z" fill="#10C771"/>
<path d="M1686.36 503.895C1685.58 502.439 1686.57 500.024 1689.31 496.629C1690.08 498.078 1689.11 500.508 1686.36 503.895Z" fill="#10C771"/>
<path d="M420.91 331.542C419.516 332.556 417.236 331.902 413.894 329.769C415.23 328.818 417.627 329.347 420.91 331.542Z" fill="#0BC46A"/>
<path d="M4386.12 821.064C4322.68 890.941 4240.19 918.396 4143.74 910.599C4140.13 910.307 4136.48 908.766 4132.28 906.51C4131.75 906.221 4131.19 905.916 4130.63 905.6C4188.4 913.241 4246.5 909.711 4300.15 875.946C4328.64 858.016 4356.47 839.426 4386.12 821.064ZM4132.78 333.213C4280.69 313.301 4410.3 386.005 4455.56 520.871C4484.12 605.989 4476.32 691.278 4426.5 772.98C4425.89 773.611 4425.34 774.205 4424.86 774.766L4423.95 775.802L4424.34 777.119C4424.35 777.137 4424.4 777.435 4424.11 778.176C4423.97 778.527 4423.77 778.93 4423.5 779.389L4421.96 778.686C4421.68 779.165 4421.44 779.62 4421.23 780.051C4420.51 779.876 4419.67 779.822 4418.75 780.028L4417.86 780.228L4417.3 780.955C4410.33 790.127 4405.02 798.923 4399.88 807.589C4399.18 807.459 4398.36 807.436 4397.43 807.622L4396.98 807.712L4396.59 807.957C4379.42 818.74 4362.81 829.54 4346.41 840.21C4332.06 849.549 4317.88 858.786 4303.61 867.839L4297.49 871.707C4241.08 907.207 4179.44 908.58 4115.72 897.397L4115.45 897.349L4115.17 897.362C4042.16 900.903 3989.74 860.459 3954.81 804.869V804.868C3917.05 744.789 3891.4 676.779 3863.39 610.54C3830.27 532.25 3800.41 452.613 3769.32 373.372C3768.45 371.16 3767.98 368.723 3767.43 365.032C3766.97 361.947 3766.46 358.037 3765.61 352.898C3811.67 352.825 3854.4 351.094 3896.85 354.178C3901.57 354.521 3906.96 357.928 3912.37 363.118C3917.68 368.217 3922.61 374.643 3926.42 380.241C3934.06 391.49 3937.3 405.884 3940.6 423.468C3933.27 427.593 3926.55 430.521 3920.05 432.86C3916.92 433.884 3914.16 434.773 3912.13 435.42C3911.03 435.771 3910.14 436.051 3909.53 436.243C3909.23 436.339 3908.99 436.414 3908.83 436.464C3908.75 436.489 3908.69 436.508 3908.65 436.521C3908.63 436.527 3908.62 436.531 3908.61 436.534L3908.59 436.539H3908.59L3910.03 441.326C3913.88 440.21 3917.73 439.006 3921.68 437.588C3921.93 437.507 3922.18 437.428 3922.43 437.346C3929.27 435.1 3937.68 432.256 3944 429.854C3948.54 429.245 3951.33 429.958 3958.11 431.813L3958.15 431.824L3958.19 431.834C3965.78 433.647 3970.81 434.738 3975.41 435.713C3975.42 435.714 3975.43 435.716 3975.43 435.718V435.717C3975.44 435.718 3975.44 435.72 3975.45 435.721L3975.76 434.279C3976.01 434.62 3976.27 434.961 3976.52 435.305L3977.05 436.024L3977.92 436.242L3984.7 437.936L3980.55 432.331C3977.22 427.846 3973.9 423.36 3970.58 418.875C4010.62 372.121 4061.53 344.52 4124.38 333.729C4134.36 342.232 4142.1 350.506 4152.68 361.834L4153.43 362.627H4160.28L4156.34 358.42C4146.94 348.364 4139.72 340.63 4132.78 333.213ZM4318.14 568.1C4292.81 501.612 4223.8 464.969 4148.15 478.938C4043.18 498.325 3996.72 615.901 4053.11 700.948C4085.69 750.101 4133.59 760.582 4185.85 774.66L4185.91 774.506C4186.14 774.604 4186.36 774.698 4186.55 774.775C4186.75 774.85 4187.01 774.946 4187.26 775.012C4187.37 775.039 4187.63 775.102 4187.95 775.108C4188.1 775.112 4188.43 775.107 4188.82 774.981C4189.22 774.849 4189.9 774.504 4190.3 773.699C4190.69 772.917 4190.56 772.195 4190.45 771.836C4190.37 771.554 4190.24 771.336 4190.16 771.196C4198.87 768.328 4208.7 766.459 4220.35 764.652C4220.48 765.09 4220.76 765.731 4221.38 766.232C4222.17 766.874 4223.1 766.958 4223.83 766.795C4224.45 766.655 4224.91 766.346 4225.18 766.143C4225.38 765.989 4225.57 765.822 4225.73 765.66C4226.11 765.695 4226.44 765.645 4226.69 765.578C4227.08 765.469 4227.38 765.291 4227.56 765.171C4228.17 764.762 4228.73 764.075 4229.21 763.433C4229.69 762.79 4230.29 761.923 4231.02 760.785C4237.8 756.986 4245.02 753.292 4251.75 749.029C4315.32 708.76 4343.05 633.511 4318.14 568.1ZM4005.24 607.128L4007.73 607.394L4010.21 607.659C4010.29 606.974 4010.36 606.295 4010.43 605.618L4007.95 605.337L4005.47 605.057C4005.39 605.75 4005.31 606.442 4005.24 607.128ZM4006.68 595.592C4006.44 597.263 4006.21 598.937 4006 600.613L4008.48 600.929L4010.96 601.243C4011.17 599.594 4011.39 597.948 4011.63 596.306L4009.15 595.949L4006.68 595.592ZM4057.3 482.821C4057.22 483.358 4057.12 483.895 4057.02 484.433L4059.48 484.891L4061.94 485.349C4062.04 484.778 4062.15 484.201 4062.24 483.618L4057.3 482.821ZM4058.02 476.863C4057.97 477.433 4057.92 478.001 4057.86 478.566L4060.35 478.821L4062.84 479.076C4062.9 478.472 4062.95 477.868 4063 477.267L4060.51 477.064L4058.02 476.863ZM4044 397.405L4041.59 398.062C4047.11 418.332 4055.12 438.66 4057.69 459.859L4057.8 460.869C4057.92 461.858 4058.01 462.883 4058.08 463.942L4063.07 463.587C4062.99 462.476 4062.89 461.378 4062.77 460.305C4060.45 439.624 4052.85 419.303 4047.46 400.49C4047.28 399.863 4047.1 399.238 4046.93 398.614L4046.41 396.749L4044 397.405ZM3965.89 422.974C3968.34 425.113 3970.42 427.426 3972.37 429.856C3969.71 429.165 3966.99 428.302 3964.06 427.059C3964.2 426.148 3964.43 425.417 3964.75 424.755C3965.02 424.178 3965.39 423.604 3965.89 422.974Z" fill="#121833"/>
<path d="M3124.79 379.971C3121.64 379.158 3119.7 377.17 3117.92 375.054C3117.87 374.999 3119.47 373.56 3120.29 372.766C3122.21 374.77 3124.12 376.775 3124.79 379.971Z" fill="#121833"/>
<path d="M3414.96 314.152C3535.98 290.571 3702.81 354.164 3761.07 534.184C3791.47 628.114 3824.82 721.097 3857.38 814.315C3864.21 833.855 3873.03 852.742 3881.69 871.586C3891.15 892.19 3886.1 902.667 3862.48 902.475C3832.27 902.229 3801.75 899.554 3771.94 902.981C3733.69 907.379 3716.31 890.564 3710.74 855.425C3709.3 846.306 3706.58 837.389 3706.38 825.958C3722.86 835.993 3737.41 848.448 3748.48 857.927C3765.1 855.57 3780.33 853.496 3795.53 851.225C3807.7 849.405 3821.95 850.459 3831.18 844.201C3834.36 842.049 3835.52 835.512 3835.52 828.547C3835.52 835.51 3834.35 842.045 3831.18 844.197C3821.95 850.454 3807.7 849.401 3795.53 851.22C3780.33 853.491 3765.1 855.565 3748.48 857.922C3737.41 848.444 3722.86 835.988 3705.72 823.391C3697.75 823.196 3692.36 823.143 3684.26 823.516C3673.88 822.206 3666.06 818.505 3658.61 819.141C3642.81 820.488 3627.21 824.095 3606.47 827.642C3585.63 879.961 3439.51 917.129 3372.52 875.93C3372.52 875.93 3372.52 875.93 3372.52 875.93C3439.5 917.136 3585.63 879.968 3606.47 827.647C3627.21 824.1 3642.82 820.493 3658.61 819.146C3666.06 818.51 3673.88 822.211 3681.53 823.947C3648.78 872.712 3598.21 893.666 3542.21 910.461C3540.09 909.968 3538.55 909.798 3537.41 909.908C3538.03 909.915 3538.81 910.115 3539.72 910.516C3539.51 911.95 3538.56 912.634 3535.93 912.878C3535.5 911.384 3535.74 910.433 3536.52 910.072C3535.3 910.424 3534.68 911.242 3534.24 912.437C3374.9 952.147 3222 865.24 3177.08 706.339C3185.27 713.614 3191.76 721.99 3199.73 733.085C3191.76 721.93 3185.25 713.231 3176.98 704.199C3170.87 659.337 3167.41 614.974 3164.94 567.906C3174.12 562.463 3182.89 560.773 3190.38 556.733C3200.82 551.105 3210.45 543.927 3220.15 537.013C3227.13 532.036 3233.43 526.107 3240.42 521.148C3248.56 515.37 3259.74 503.915 3264.94 506.087C3274.4 510.035 3287.86 522.171 3288.18 529.792C3287.87 522.171 3274.4 510.026 3264.94 506.075C3259.74 503.903 3248.56 515.358 3240.42 521.136C3233.43 526.095 3227.13 532.024 3220.15 537.001C3210.45 543.915 3200.82 551.094 3190.38 556.721C3182.89 560.761 3174.12 562.451 3165.93 565.189C3181.47 438.646 3281.55 340.146 3414.96 314.152ZM3310.98 795.73C3343.65 849.346 3414.99 833.453 3452.47 879.587C3452.47 879.587 3452.47 879.588 3452.47 879.588C3414.99 833.448 3343.65 849.343 3310.98 795.729L3310.98 795.73ZM3281.08 834.1C3281.09 834.101 3281.09 834.103 3281.09 834.105C3283.41 830.105 3285.74 826.106 3288.06 822.107C3303.03 829.16 3321.59 832.875 3332.05 844.123C3344.52 857.536 3337.93 867.132 3316.87 861.218C3317.24 861.486 3317.62 861.756 3318.01 862.027C3337.68 867.47 3344.75 857.768 3332.05 844.109C3321.59 832.86 3303.03 829.145 3288.06 822.091C3285.73 826.094 3283.41 830.097 3281.08 834.1ZM3342.77 750.061C3347.9 762.407 3352.35 773.092 3356.8 783.778H3356.8C3352.35 773.092 3347.91 762.405 3342.77 750.059L3342.77 750.061ZM3499.76 432.94C3475.48 431.284 3451.49 431.111 3447.58 466.06C3428.49 472.193 3410.57 474.924 3395.7 483.148C3305.85 532.815 3272.51 657.271 3365.01 733.524C3357.05 739.092 3350.63 743.983 3345.45 747.99C3350.68 743.992 3357.41 739.169 3367.37 734.048C3401.47 744.785 3430.38 762.391 3460.85 765.757C3525.77 772.926 3566.39 729.972 3605.21 684.517C3605.22 684.517 3605.22 684.518 3605.22 684.519C3623.31 615.891 3619.72 553.586 3561.74 501.149C3567.11 495.951 3577.08 488.13 3579.62 490.067C3621.76 522.099 3647.17 561.606 3650.08 608.293C3647.18 561.599 3621.76 522.087 3579.62 490.051C3577.08 488.114 3567.11 495.935 3558.44 498.247C3550.09 492.578 3543.89 487.872 3537.7 483.165C3539.08 482.076 3540.27 480.776 3541.29 479.298C3539.54 480.608 3537.78 481.909 3536 483.196C3531.45 481.557 3528.59 479.893 3526.09 475.109C3526.09 475.112 3526.09 475.117 3526.09 475.12C3502.54 474.347 3479.34 470.451 3453.15 465.883C3451.49 431.125 3475.48 431.299 3499.76 432.954C3519.88 434.327 3527.03 445.096 3527.12 462.122C3527.04 445.088 3519.88 434.312 3499.76 432.94ZM3257.68 657.725C3257.99 663.284 3260.82 667.988 3268.01 671.831C3286.5 681.713 3293.37 693.443 3293.52 706.751C3293.37 693.438 3286.51 681.703 3268.01 671.819C3260.82 667.975 3257.99 663.273 3257.68 657.713V657.725ZM3650.23 611.312C3650.22 611.044 3650.21 610.777 3650.2 610.51C3650.21 610.777 3650.22 611.044 3650.23 611.312ZM3650.27 612.312C3650.26 611.978 3650.25 611.645 3650.23 611.312C3650.25 611.645 3650.26 611.978 3650.27 612.312Z" fill="#121833"/>
</svg>
