<svg width="1200" height="1200" viewBox="0 0 1200 1200" fill="none" xmlns="http://www.w3.org/2000/svg">
<path d="M262.851 522.118C262.657 572.328 262.464 622.538 261.853 675.039C260.912 681.738 259.934 686.145 259.933 690.552C259.911 772.956 260.006 855.361 260.013 939.007C260.023 967.898 260.095 995.548 260.168 1023.2C257.375 1036.63 254.777 1050.11 251.719 1063.49C249.724 1072.22 244.768 1073.11 236.765 1069.52C207.464 1056.39 185.438 1034.05 163.952 1011.51C116.881 962.141 77.0507 907.564 49.0671 844.884C23.019 786.539 7.06545 725.834 2.15887 661.917C-4.86115 570.469 5.0743 481.341 34.383 394.412C65.4114 302.382 116.886 223.819 189.707 159.454C274.246 84.7349 370.934 33.5471 481.583 9.66456C486.342 8.63737 491.273 8.40521 498.216 7.93359C511.977 12.4926 524.039 26.243 520.646 32.1284C510.736 49.3201 512.74 66.4094 518.424 84.319C520.593 91.1522 519.352 99.0676 519.665 106.49C481.686 124.657 445.2 145.445 413.362 173.153C334.329 241.934 281.147 325.812 265.775 431.123C264.878 437.268 265.265 443.601 264.476 452.04C263.548 476.861 263.2 499.49 262.851 522.118Z" fill="#38B34A"/>
<path d="M455.573 485.685C462.183 458.726 466.173 432.007 475.777 407.486C500.233 345.04 546.178 301.502 607.513 276.806C686.833 244.868 764.979 251.925 836.198 299.707C900.51 342.856 936.925 404.23 943.431 482.828C949.748 559.142 924.95 623.906 871.835 677.22C833.583 715.616 786.5 738.443 731.753 744.975C646.199 755.184 574.523 727.587 517.146 664.93C483.202 627.862 462.147 583.304 458.06 532.138C456.859 517.096 456.34 501.999 455.573 485.685ZM690.605 348.094C623.369 355.883 575.274 390.05 554.059 454.799C535.184 512.402 546.839 565.413 589.995 609.924C632.422 653.683 683.91 665.661 741.664 651.084C789.106 639.109 821.578 608.486 841.685 564.145C869.148 503.58 853.279 434.149 805.366 389.256C774.419 360.26 736.19 346.351 690.605 348.094Z" fill="#0E1232"/>
<path d="M468.833 903.002C471.474 892.309 479.251 887.506 488.94 890.361C550.12 908.385 611.098 927.094 672.105 945.7C674.576 946.453 676.669 948.443 679.784 951.534C682.158 967.238 685.1 981.295 684.796 995.283C684.522 1007.91 680.564 1020.44 678.575 1033.07C678.266 1035.03 679.797 1037.28 679.968 1040.2C679.796 1048.5 680.133 1056 680.811 1064.47C687.805 1082.74 674.873 1101.82 685.957 1119.09C687.153 1120.95 682.448 1126.6 680.054 1131.44C678.755 1141.89 678.389 1151.49 676.877 1160.9C675.068 1172.16 672.28 1183.26 669.915 1194.43C614.852 1203.46 560.054 1200.97 505.524 1190.22C476.205 1184.45 466.503 1172.35 466.17 1142.56C466.135 1139.44 466.22 1136.32 466.826 1131.01C467.857 1124.84 468.706 1120.88 468.707 1116.91C468.725 1068.81 468.619 1020.71 468.594 971.337C468.706 947.713 468.77 925.358 468.833 903.002Z" fill="#39B34A"/>
<path d="M1117.26 608.262C1120.79 587.422 1124.32 566.582 1128.48 543.639C1129.53 492.233 1129.94 442.928 1130.35 393.624C1130.74 378.826 1131.14 364.027 1131.53 349.229C1132.94 348.96 1134.34 348.691 1135.74 348.422C1138.17 351.801 1140.97 354.976 1142.98 358.588C1172.61 411.861 1190.98 468.571 1195.14 529.645C1196.59 550.877 1200.8 572.171 1199.87 593.265C1197.46 647.83 1194.92 702.505 1179.6 755.59C1165.21 805.451 1146.78 853.534 1119.57 898.129C1119.26 826.735 1119.63 755.488 1119.87 684.241C1119.91 672.794 1119.51 661.341 1119.1 649.899C1118.6 636.016 1117.89 622.141 1117.26 608.262Z" fill="#81C340"/>
<path d="M1077.21 961.915C1067.63 973.596 1058.06 985.279 1048.47 996.956C1042.92 1003.72 1037.29 1004.62 1030.56 998.127C998.827 967.532 966.578 937.466 935.267 906.45C922.512 893.816 923.378 880.414 936.6 867.952C949.54 855.757 963.362 844.481 977.015 833.063C1019.6 797.448 1052.95 754.439 1080.08 705.652C1079.78 716.626 1078.77 727.777 1077.51 739.997C1075.38 769.227 1072.52 797.37 1072.03 825.555C1071.78 839.743 1075.84 854.005 1078.05 869.102C1079.31 879.915 1080.46 889.86 1080.85 900.243C1077.5 906.319 1072.45 912.127 1072.83 917.557C1073.61 928.8 1077.28 939.843 1079.58 951.887C1078.67 955.843 1077.94 958.879 1077.21 961.915Z" fill="#3AB34A"/>
<path d="M672.004 3.40094C719.557 14.7248 768.769 21.618 814.199 38.6185C859.641 55.6238 901.428 82.5028 944.354 105.903C947.414 107.57 948.613 116.868 947.076 121.395C945.878 124.922 939.111 128.601 934.758 128.677C908.139 129.137 886.929 113.182 863.619 103.688C817.011 84.7072 769.009 72.6466 718.454 72.0832C703.038 71.9114 687.619 71.8952 670.803 70.7966C663.474 55.4415 661.728 41.9123 674.882 29.8797C676.809 28.1165 676.597 22.3293 675.38 19.1724C672.996 12.9836 669.207 7.33626 665.999 1.46484C664.57 2.88901 663.141 4.31318 661.712 5.73736C665.143 4.95854 668.573 4.17974 672.004 3.40094Z" fill="#7FC241"/>
<path d="M680.476 1039.39C679.797 1037.28 678.266 1035.03 678.575 1033.07C680.565 1020.44 684.522 1007.91 684.796 995.284C685.1 981.297 682.158 967.239 680.522 952.094C703.434 974.643 726.453 998.31 749.154 1022.95C745.268 1025.23 741.7 1026.55 740.476 1027.01C741.176 1038.4 742.212 1047.58 742.195 1056.77C742.17 1070.69 740.975 1084.61 741.059 1098.53C741.227 1126.58 741.921 1154.63 742.399 1182.69C724.332 1185.78 706.265 1188.88 687.3 1190.89C691.686 1169.32 686.743 1149.84 680.48 1130.5C682.448 1126.6 687.153 1120.95 685.957 1119.09C674.873 1101.82 687.805 1082.75 681.509 1063.96C691.304 1054.19 684.857 1046.85 680.476 1039.39Z" fill="#65BD43"/>
<path d="M670.872 3.18575C668.573 4.17799 665.143 4.95679 661.712 5.73561C663.141 4.31142 664.57 2.88725 665.999 1.46309C669.207 7.33451 672.996 12.9819 675.381 19.1706C676.597 22.3276 676.809 28.1147 674.882 29.878C661.728 41.9106 663.474 55.4398 669.681 70.6894C624.993 72.9357 582.069 84.0809 538.457 98.5102C534.125 75.537 531.19 52.7024 528.277 29.8648C528.224 29.4508 528.302 28.7578 528.562 28.6039C539.9 21.8771 534.384 11.9153 533.538 2.85638C540.049 1.85319 546.578 -0.115244 553.068 0.00529206C591.963 0.727608 630.85 1.93049 670.872 3.18575Z" fill="#65BD44"/>
<path d="M1081.61 899.799C1080.46 889.854 1079.31 879.909 1078.71 868.599C1080.41 852.323 1082.16 837.429 1082.58 822.497C1083.05 805.283 1082.82 788.013 1081.98 770.812C1081.46 760.138 1079.22 749.549 1077.76 738.922C1078.77 727.771 1079.78 716.62 1080.53 704.802C1092.27 672.712 1104.25 641.29 1116.75 609.062C1117.89 622.135 1118.6 636.01 1119.1 649.894C1119.51 661.336 1119.91 672.789 1119.87 684.235C1119.63 755.483 1119.26 826.73 1119.09 898.926C1107.93 917.026 1096.61 934.177 1084.25 951.519C1083.21 951.709 1082.49 951.008 1082.55 950.166C1082.28 932.815 1081.95 916.307 1081.61 899.799Z" fill="#66BD43"/>
<path d="M743.34 1182.45C741.921 1154.64 741.227 1126.59 741.059 1098.53C740.975 1084.62 742.17 1070.69 742.195 1056.77C742.212 1047.58 741.176 1038.4 740.476 1027.01C741.7 1026.56 745.268 1025.24 749.644 1023.72C785.891 1061.22 821.331 1098.93 858.575 1138.55C819.556 1157.18 784.307 1175.73 743.34 1182.45Z" fill="#7FC240"/>
<path d="M532.342 2.76172C534.384 11.9154 539.9 21.8771 528.562 28.6039C528.302 28.7579 528.224 29.4508 528.277 29.8649C531.19 52.7025 534.126 75.537 537.435 98.7666C532.379 101.508 526.948 103.854 520.591 106.345C519.352 99.0669 520.593 91.1516 518.424 84.3183C512.74 66.4088 510.736 49.3195 520.647 32.1278C524.039 26.2424 511.978 12.492 499.368 7.92924C509.333 6.08537 520.239 4.37617 532.342 2.76172Z" fill="#4EB747"/>
<path d="M260.076 937.764C260.006 855.359 259.912 772.955 259.933 690.55C259.934 686.143 260.912 681.736 261.773 676.312C262.159 761.877 262.208 848.458 261.663 936.344C261.07 937.649 260.076 937.764 260.076 937.764Z" fill="#56BA46"/>
<path d="M680.054 1131.44C686.743 1149.84 691.686 1169.32 686.147 1190.88C681.258 1192.83 676.624 1193.71 670.953 1194.51C672.28 1183.26 675.069 1172.16 676.877 1160.9C678.389 1151.49 678.755 1141.89 680.054 1131.44Z" fill="#4EB747"/>
<path d="M468.545 972.612C468.619 1020.72 468.726 1068.82 468.707 1116.92C468.706 1120.89 467.857 1124.85 466.871 1129.82C466.353 1078.85 466.364 1026.87 466.964 973.696C467.552 972.496 468.545 972.612 468.545 972.612Z" fill="#739A6F"/>
<path d="M1129.91 394.621C1129.94 442.925 1129.53 492.229 1128.74 542.556C1128.74 494.259 1129.1 444.941 1129.91 394.621Z" fill="#60AF54"/>
<path d="M260.013 939.004C260.076 937.763 261.07 937.647 261.566 937.594C261.761 965.438 261.459 993.335 260.663 1022.21C260.095 995.544 260.023 967.895 260.013 939.004Z" fill="#739A6F"/>
<path d="M263.346 521.138C263.2 499.491 263.548 476.862 264.43 453.227C264.589 474.865 264.215 497.512 263.346 521.138Z" fill="#739A6F"/>
<path d="M468.594 971.342C468.545 972.611 467.552 972.494 467.056 972.44C466.973 949.899 467.387 927.411 468.317 903.965C468.77 925.362 468.706 947.718 468.594 971.342Z" fill="#56BA46"/>
<path d="M1077.85 961.362C1077.94 958.881 1078.67 955.844 1080.26 951.91C1081.58 951.014 1082.03 951.015 1082.49 951.016C1082.49 951.016 1083.21 951.716 1083.56 952.088C1082.1 955.243 1080.3 958.025 1077.85 961.362Z" fill="#66BD43"/>
<path d="M691.851 348.081C736.19 346.349 774.419 360.258 805.367 389.255C853.279 434.147 869.148 503.579 841.685 564.143C821.578 608.485 789.106 639.107 741.664 651.082C683.91 665.659 632.422 653.681 589.996 609.923C546.839 565.412 535.185 512.4 554.059 454.798C575.275 390.048 623.369 355.881 691.851 348.081ZM748.952 595.378C760.67 585.295 774.361 576.766 783.751 564.848C817.576 521.918 813.853 444.253 743.099 407.374C732.271 404.721 721.443 402.068 708.088 399.226C698.324 399.692 688.274 398.823 678.843 400.843C621.247 413.181 586.129 468.248 598.321 526.146C609.41 578.808 666.278 617.182 717.77 605.159C727.631 602.126 737.491 599.092 748.952 595.378Z" fill="#47704C"/>
<path d="M679.968 1040.2C684.857 1046.85 691.304 1054.19 681.169 1062.99C680.133 1056 679.796 1048.5 679.968 1040.2Z" fill="#4EB747"/>
<path d="M1077.51 739.996C1079.22 749.554 1081.46 760.143 1081.98 770.817C1082.82 788.018 1083.05 805.288 1082.58 822.502C1082.16 837.434 1080.41 852.328 1078.6 867.736C1075.84 854.004 1071.78 839.741 1072.03 825.553C1072.52 797.369 1075.38 769.226 1077.51 739.996Z" fill="#4DB847"/>
<path d="M1082.55 950.167C1082.03 951.008 1081.58 951.007 1080.45 950.985C1077.28 939.838 1073.61 928.795 1072.83 917.552C1072.45 912.122 1077.5 906.314 1080.85 900.238C1081.95 916.308 1082.28 932.816 1082.55 950.167Z" fill="#4DB847"/>
<path d="M715.658 605.33C666.278 617.188 609.41 578.814 598.321 526.151C586.128 468.253 621.246 413.187 678.843 400.849C688.274 398.828 698.324 399.698 709.736 399.831C712.621 411.267 718.551 425.038 714.028 432.271C706.73 443.939 711.641 451.873 713.098 462.219C715.442 478.865 719.609 498.036 713.681 512.251C708.205 525.381 711.798 533.742 713.889 544.752C715.685 554.211 716.258 564.723 713.971 573.925C711.203 585.058 711.161 595.059 715.658 605.33ZM710.065 573.185C710.065 573.185 709.924 573.197 709.887 573.107C709.887 573.107 710.032 573.092 710.065 573.185ZM709.892 492.714C709.892 492.714 710.032 492.701 710.114 492.979L710.374 493.307C710.374 493.307 709.924 492.807 709.892 492.714Z" fill="#3AB34A"/>
<path d="M744.97 408.281C813.853 444.25 817.576 521.915 783.751 564.845C774.361 576.763 760.67 585.292 747.813 594.748C746.041 586.596 744.873 579.074 744.86 571.549C744.765 517.127 744.905 462.704 744.97 408.281Z" fill="#80C340"/>
<path d="M744.034 407.827C744.904 462.704 744.765 517.127 744.86 571.55C744.873 579.074 746.041 586.597 747.013 595.088C737.491 599.09 727.63 602.124 716.714 605.24C711.162 595.052 711.203 585.051 713.971 573.917C716.258 564.716 715.686 554.204 713.889 544.745C711.798 533.735 708.205 525.374 713.681 512.244C719.61 498.029 715.442 478.858 713.098 462.212C711.641 451.866 706.73 443.932 714.028 432.264C718.551 425.031 712.621 411.26 710.999 399.918C721.443 402.066 732.271 404.719 744.034 407.827Z" fill="#66BD43"/>
<path d="M709.925 492.803L710.374 493.303C710.374 493.303 710.114 492.975 710.049 492.866C709.984 492.756 709.925 492.803 709.925 492.803Z" fill="#66BD43"/>
<path d="M710.008 492.727C710.032 492.697 709.892 492.71 709.908 492.756C709.925 492.803 709.984 492.756 710.008 492.727Z" fill="#66BD43"/>
<path d="M710.032 573.086C710.032 573.086 709.887 573.1 709.93 573.117C709.973 573.133 710.032 573.086 710.032 573.086Z" fill="#66BD43"/>
<path d="M709.948 573.166C709.924 573.196 710.065 573.183 710.048 573.137C710.032 573.09 709.973 573.137 709.948 573.166Z" fill="#66BD43"/>
</svg>
